<?xml version="1.0" encoding="UTF-8"?>
<svg width="64" height="64" version="1.1" viewBox="0 0 16.933 16.933" xmlns="http://www.w3.org/2000/svg" xmlns:cc="http://creativecommons.org/ns#" xmlns:dc="http://purl.org/dc/elements/1.1/" xmlns:rdf="http://www.w3.org/1999/02/22-rdf-syntax-ns#">
 <metadata>
  <rdf:RDF>
   <cc:Work rdf:about="">
    <dc:format>image/svg+xml</dc:format>
    <dc:type rdf:resource="http://purl.org/dc/dcmitype/StillImage"/>
    <dc:title/>
   </cc:Work>
  </rdf:RDF>
 </metadata>
 <g transform="matrix(.76466 0 0 .76466 -115.2 -177.35)">
  <path d="m168.06 249.34-2.4458-0.51551-0.4597 2.4569-2.0624-1.4122-1.3649 2.094-1.3649-2.094-2.0624 1.4122-0.4597-2.4569-2.4458 0.51551 0.51551-2.4458-2.4569-0.4597 1.4122-2.0624-2.094-1.3649 2.094-1.3649-1.4122-2.0624 2.4569-0.4597-0.51551-2.4458 2.4458 0.51551 0.4597-2.4569 2.0624 1.4122 1.3649-2.094 1.3649 2.094 2.0624-1.4122 0.4597 2.4569 2.4458-0.51551-0.51551 2.4458 2.4569 0.4597-1.4122 2.0624 2.094 1.3649-2.094 1.3649 1.4122 2.0624-2.4569 0.4597z" fill="none" stroke="currentColor" stroke-width=".8" style="paint-order:markers fill stroke"/>
  <g transform="translate(3.0326 16.329)" fill="currentColor" font-family="'Apple SD Gothic Neo'" stroke="currentColor" stroke-width=".26458">
   <text x="153.86649" y="229.81339" font-size="10.583px" style="line-height:1.25" xml:space="preserve"><tspan x="153.86649" y="229.81339" fill="currentColor" font-family="'Bebas Neue'" stroke="currentColor" stroke-width=".26458">1</tspan></text>
   <text x="157.57068" y="229.81339" font-size="7.0556px" style="line-height:1.25" xml:space="preserve"><tspan x="157.57068" y="229.81339" fill="currentColor" font-family="'Bebas Neue'" font-size="7.0556px" stroke="currentColor" stroke-width=".26458">st</tspan></text>
  </g>
 </g>
</svg>
