<?xml version="1.0" encoding="UTF-8"?>
<svg width="64" height="64" version="1.1" viewBox="0 0 16.933 16.933" xmlns="http://www.w3.org/2000/svg" xmlns:cc="http://creativecommons.org/ns#" xmlns:dc="http://purl.org/dc/elements/1.1/" xmlns:rdf="http://www.w3.org/1999/02/22-rdf-syntax-ns#">
 <metadata>
  <rdf:RDF>
   <cc:Work rdf:about="">
    <dc:format>image/svg+xml</dc:format>
    <dc:type rdf:resource="http://purl.org/dc/dcmitype/StillImage"/>
    <dc:title/>
   </cc:Work>
  </rdf:RDF>
 </metadata>
 <g fill="none" stroke="currentColor">
  <path transform="scale(.26458)" d="m31.904 4.9141a27.086 27.086 0 0 0-26.99 27.086 27.086 27.086 0 0 0 27.086 27.086 27.086 27.086 0 0 0 22.852-12.545 20.146 20.146 0 0 1-17.486-19.969 20.146 20.146 0 0 1 9.5859-17.156 27.086 27.086 0 0 0-14.951-4.502 27.086 27.086 0 0 0-0.0957 0z" opacity=".9" stroke-width="4"/>
  <circle cx="4.9938" cy="8.0293" r="1.0834" opacity=".9" stroke-width=".79375"/>
  <g stroke-width=".52917">
   <circle cx="7.4417" cy="4.0538" r=".34676" opacity=".9"/>
   <circle cx="6.7367" cy="12.181" r=".42772" opacity=".9"/>
   <circle cx="10.203" cy="13.611" r=".67276" opacity=".9"/>
   <circle cx="8.3622" cy="7.9509" r=".1933" opacity=".9"/>
  </g>
 </g>
 <g fill="currentColor">
  <circle cx="4.0146" cy="11.496" r=".33073" opacity=".9"/>
  <circle cx="4.7784" cy="4.7588" r=".39687" opacity=".9"/>
  <circle cx="8.5776" cy="10.849" r=".19844" opacity=".9"/>
 </g>
</svg>
