<?xml version="1.0" encoding="UTF-8"?>
<svg width="64" height="64" version="1.1" viewBox="0 0 16.933 16.933" xmlns="http://www.w3.org/2000/svg" xmlns:cc="http://creativecommons.org/ns#" xmlns:dc="http://purl.org/dc/elements/1.1/" xmlns:rdf="http://www.w3.org/1999/02/22-rdf-syntax-ns#">
 <metadata>
  <rdf:RDF>
   <cc:Work rdf:about="">
    <dc:format>image/svg+xml</dc:format>
    <dc:type rdf:resource="http://purl.org/dc/dcmitype/StillImage"/>
    <dc:title/>
   </cc:Work>
  </rdf:RDF>
 </metadata>
 <g>
  <path d="m11.223 13.786a5.2085 5.3197 0 0 1-4.5107-2.6599 5.2085 5.3197 0 0 1 0-5.3197 5.2085 5.3197 0 0 1 4.5107-2.6599v5.3197z" fill="none" opacity=".9" stroke="currentColor" stroke-width=".79375"/>
  <path d="m10.966 16.711c0.05883-2.1117 0.04569-2.1122 0.04569-2.1122m-3.112 1.447c0.88581-1.9137 0.8753-1.9185 0.8753-1.9185m-3.4463 0.15406c1.533-1.4509 1.525-1.4593 1.525-1.4593m-3.2421-1.166c1.9755-0.73682 1.9713-0.74784 1.9713-0.74784m-2.5598-2.3071c2.1121 0.033439 2.1122 0.022479 2.1122 0.022479m-1.557-3.083c1.9514 0.79817 1.9558 0.7873 1.9558 0.7873m-0.26929-3.4324c1.4867 1.4981 1.495 1.4898 1.495 1.4898m1.0565-3.2828c0.82548 1.9409 0.83607 1.9364 0.83607 1.9364m2.2208-2.6367c-0.0058 2.1112 0.0072 2.111 0.0072 2.111" fill="currentColor" opacity=".9" stroke="currentColor" stroke-width=".79375"/>
  <g fill="none">
   <path d="m2.3306 19.624-0.039123 2.1126" stroke="currentColor" stroke-width=".46302"/>
   <g stroke="currentColor" stroke-width=".39688">
    <path d="m12.205 2.1173 0.06463 12.699"/>
    <path d="m13.281 1.5882 0.07001 13.757"/>
    <path d="m14.241 3.7047c0.04847 9.524 0.04847 9.524 0.04847 9.524"/>
   </g>
  </g>
 </g>
</svg>
