<?xml version="1.0" encoding="UTF-8"?>
<svg width="60" height="52" version="1.1" viewBox="0 -37 45.088 39" xmlns="http://www.w3.org/2000/svg" xmlns:cc="http://creativecommons.org/ns#" xmlns:dc="http://purl.org/dc/elements/1.1/" xmlns:rdf="http://www.w3.org/1999/02/22-rdf-syntax-ns#">
 <metadata>
  <rdf:RDF>
   <cc:Work rdf:about="">
    <dc:format>image/svg+xml</dc:format>
    <dc:type rdf:resource="http://purl.org/dc/dcmitype/StillImage"/>
    <dc:title/>
   </cc:Work>
  </rdf:RDF>
 </metadata>
 <path stroke="currentColor" fill="currentColor" d="m42.919-17.383c-0.23461-0.27967-0.65119-0.31578-0.93086-0.08119-0.27966 0.23495-0.31578 0.65153-0.08119 0.9312 1.5249 1.8153 2.2133 3.4193 1.6739 3.9009-0.2924 0.26075-0.66839 0.10836-2.1235-1.4898-0.95321-1.0475-2.0337-2.2342-3.3134-2.5263-0.69797-0.15927-1.4943-0.1407-2.3739 0.05398-0.21122-0.75886-0.51944-1.4892-0.92466-2.1761-0.01374-0.02307-0.02853-0.04606-0.04227-0.06913 1.1992-0.4472 3.1857-0.98624 4.1692-0.41486 0.29859 0.17338 0.70965 0.48848 1.1586 0.88716 0.269 0.23908 0.69349 0.21431 0.93292-0.05469 0.24252-0.27278 0.21809-0.69074-0.05469-0.93291-0.52047-0.46267-0.99484-0.82284-1.3729-1.0423-1.2948-0.75198-3.2332-0.36602-4.5861 0.0671l1.3395-3.0574c0.96353-0.02237 2.1262-0.3151 3.2559-1.2693 2.1789-1.8397 3.4338-5.948 3.0595-8.2545-0.1751-1.0798-0.67629-1.4919-1.066-1.647-1.1778-0.4699-1.9821 0.57653-2.5693 1.3405-0.29411 0.38287-0.59855 0.77881-0.91847 1.0189-0.43377 0.32508-1.0829 0.08252-1.1995-0.44512-0.08629-0.39044-0.05883-0.88889-0.03231-1.3712 0.05328-0.96215 0.12589-2.28-1.0736-2.6918-0.39697-0.13622-1.0454-0.15101-1.8823 0.55384-1.7877 1.5046-3.5149 5.4375-3.0626 8.2531 0.17028 1.0616 0.59683 1.9646 1.2704 2.7l-1.2215 2.7623c-0.1235-0.06843-0.24905-0.13554-0.37633-0.2009 0.16821-1.076-0.33918-2.0296-1.1864-2.194-0.699-0.13554-1.3849 0.31269-1.742 1.0688-0.09803-0.02721-0.19641-0.05363-0.29583-0.07944-2.5094-0.64877-4.6061-0.63673-4.8053-0.63364-0.19918-0.0026-2.2958-0.01515-4.8049 0.63364-0.09942 0.0258-0.1978 0.05232-0.29549 0.07944-0.35741-0.7561-1.043-1.204-1.7416-1.0688-0.84726 0.16443-1.3547 1.1176-1.1868 2.1937-0.12762 0.06535-0.25284 0.13244-0.37633 0.20124l-1.2212-2.7623c0.6732-0.73546 1.0997-1.6385 1.2704-2.6997 0.45202-2.8156-1.2752-6.7488-3.0629-8.2535-0.83694-0.7045-1.4857-0.69005-1.8823-0.55384-1.1995 0.41176-1.1269 1.7296-1.0736 2.6918 0.02651 0.48228 0.05398 0.98074-0.03231 1.3715-0.11661 0.52768-0.76539 0.76951-1.1995 0.44478-0.31991-0.23976-0.62435-0.63604-0.91847-1.0189-0.58719-0.76401-1.3911-1.8104-2.5693-1.3405-1.3206 0.52665-1.3068 2.7857-0.85345 4.7237 0.083222 0.35535 0.43825 0.57619 0.79395 0.49295 0.35534-0.08286 0.57619-0.4386 0.49294-0.79395-0.46989-2.0096-0.14619-3.1145 0.0561-3.195 0.21465-0.08604 0.48022 0.20054 1.0316 0.91812 0.33264 0.43274 0.70898 0.92293 1.1744 1.2714 0.5669 0.42483 1.3041 0.53078 1.9718 0.2831 0.6677-0.24768 1.1575-0.80839 1.3106-1.5005 0.12555-0.56759 0.0915-1.1847 0.0612-1.7293-0.04984-0.90402-0.03514-1.2941 0.18335-1.3691 0.03444-0.01137 0.23667 0.0071 0.60199 0.31511 1.3264 1.1159 3.0062 4.561 2.6089 7.0323-0.19229 1.1988-0.78672 2.0946-1.8166 2.7385-0.51048 0.31957-1.0516 0.52562-1.6078 0.61334-1.1668 0.18404-2.2308-0.12177-3.1627-0.90883-0.57998-0.4895-1.1218-1.2191-1.5672-2.1097-0.16306-0.32645-0.56003-0.45889-0.88647-0.2955-0.32646 0.16306-0.45889 0.56003-0.29549 0.88648 0.53251 1.065 1.1706 1.9157 1.8964 2.5287 1.1297 0.95389 2.292 1.2466 3.2559 1.269l1.3399 3.0578c-1.3529-0.43309-3.292-0.8194-4.5868-0.06746-1.4909 0.86514-5.1826 4.5029-5.4375 7.0065-0.092185 0.9078 0.28173 1.4496 0.61197 1.744 0.2893 0.25834 0.65532 0.42656 1.0454 0.44238 0.43 0.01752 0.84383-0.14758 1.1992-0.37908 0.5786-0.37737 1.141-0.99518 1.7365-1.6491 0.82249-0.90367 1.7547-1.9277 2.6302-2.1276 0.51324-0.11696 1.1238-0.09598 1.819 0.06155-0.06604 0.50636-0.09288 1.0206-0.07847 1.5397-1.3034-0.12624-2.3213 0.05505-3.0316 0.54456-1.4186 0.97797-4.818 4.8906-4.8782 7.4065-0.021663 0.91228 0.39318 1.4235 0.74509 1.6918 0.34193 0.2604 0.75714 0.4011 1.1878 0.35122 0.38699-0.044735 0.74888-0.22704 1.0547-0.46199 0.54763-0.42105 1.0609-1.0805 1.6037-1.7788 0.74991-0.96456 1.6003-2.0578 2.4575-2.3244 0.66426-0.20709 1.5081-0.18782 2.5094 0.055038 0.01061 0.017877 0.02131 0.035754 0.03197 0.05363-0.10491 0.070186-0.20364 0.14516-0.29445 0.22532-1.2903 1.1424-4.1923 5.4365-3.9484 7.9415 0.088753 0.90815 0.56209 1.3653 0.94393 1.5892 0.38596 0.22636 0.83418 0.31235 1.2704 0.19264 0.35913-0.098727 0.67836-0.31441 0.94254-0.57344 0.49295-0.48366 0.92226-1.2005 1.377-1.9591 0.62813-1.0481 1.3402-2.236 2.1589-2.6044 0.52253-0.23529 1.1926-0.33161 1.9904-0.29033 2.183 1.367 4.7574 2.1317 7.4447 2.1317 0.36498 0 0.66081-0.29584 0.66081-0.66081 0-0.36498-0.29584-0.66081-0.66081-0.66081-4.5177 0-8.6821-2.3787-10.869-6.2077-1.7265-3.0241-1.8369-6.3894-0.29481-9.0017 0.90677-1.5366 2.2642-2.5961 3.6673-3.3264 0.34846 0.41245 0.87924 0.68007 1.4262 0.57412 0.45786-0.08876 0.84003-0.41933 1.0481-0.90712 0.09151-0.21431 0.14586-0.4527 0.16374-0.70106 0.11903-0.03408 0.23667-0.06641 0.35191-0.09632 2.4117-0.62848 4.4733-0.60027 4.4933-0.59993h0.0244c0.01991 0 2.0819-0.02888 4.4939 0.59993 0.11558 0.02995 0.23323 0.06262 0.35259 0.09632 0.05988 0.81871 0.52356 1.4744 1.2122 1.6082 0.54798 0.1063 1.0767-0.16099 1.4262-0.57378 1.4032 0.7303 2.7602 1.7898 3.667 3.3261 1.3718 2.3244 1.4455 5.249 0.20193 8.0237-1.5748 3.5142-4.9707 6.1747-8.863 6.9432-0.3581 0.070538-0.59098 0.4183-0.52046 0.7764 0.0709 0.35775 0.4183 0.59064 0.7764 0.52012 1.6608-0.32783 3.2552-0.9649 4.6866-1.8641 0.79738-0.041301 1.4675 0.055039 1.99 0.29033 0.81871 0.36842 1.5308 1.5562 2.1589 2.6044 0.45476 0.75851 0.88441 1.4754 1.377 1.9591 0.26384 0.25903 0.58307 0.47506 0.94255 0.57344 0.43618 0.11937 0.88406 0.03408 1.2704-0.19264 0.38184-0.22393 0.85518-0.6811 0.94393-1.5892 0.24389-2.505-2.658-6.7994-3.9484-7.9415-0.09048-0.080137-0.18886-0.1548-0.29344-0.22463 0.01061-0.018229 0.02097-0.036457 0.03162-0.054687 1.0014-0.24252 1.8448-0.26143 2.5088-0.054687 0.85724 0.2666 1.7072 1.3598 2.4575 2.3244 0.54317 0.69831 1.0557 1.3578 1.6037 1.7785 0.30615 0.23529 0.66735 0.41657 1.0547 0.46198 0.43069 0.050548 0.84657-0.09081 1.1878-0.35121 0.35191-0.26832 0.76676-0.7795 0.74509-1.6914-0.06024-2.516-3.4596-6.4286-4.8785-7.4065-0.70966-0.4895-1.7272-0.67079-3.0299-0.54489 0.0148-0.51978-0.01171-1.034-0.07775-1.5401 0.69453-0.15686 1.3041-0.17784 1.8173-0.06086 0.87512 0.19952 1.8073 1.2239 2.6302 2.1273 0.59545 0.65428 1.1575 1.2721 1.7361 1.6491 0.33643 0.21913 0.72824 0.37633 1.1338 0.38011 0.41692 0.0035 0.80289-0.16787 1.1108-0.44307 1.2078-1.0781 0.66013-3.1152-1.5418-5.7365zm-35.976 0.73478c-1.2797 0.29171-2.3602 1.4788-3.3137 2.5263-1.4548 1.5982-1.8304 1.7509-2.1231 1.4895-0.060498-0.05363-0.22084-0.1971-0.17716-0.62435 0.18336-1.8025 3.3622-5.1713 4.7857-5.9976 0.98382-0.57138 2.97-0.03231 4.1692 0.41486-0.01409 0.02307-0.02853 0.04579-0.04227 0.06913-0.40557 0.6873-0.71276 1.418-0.92328 2.1765-0.87994-0.19505-1.6766-0.21396-2.3753-0.05433zm0.78087 7.0567c-1.2532 0.39009-2.2387 1.657-3.108 2.775-1.3264 1.7059-1.6897 1.8878-2.0017 1.6498-0.064285-0.049227-0.23495-0.17957-0.22497-0.60922 0.043332-1.8111 2.9522-5.4155 4.3072-6.3498 0.47541-0.32782 1.3203-0.42724 2.4076-0.2893 0.14173 0.89198 0.39972 1.7871 0.77364 2.666-0.80322-0.090124-1.5246-0.038484-2.1537 0.15755zm5.7365 4.689c-0.3206 0.06913-0.61953 0.16443-0.89472 0.28826-1.1968 0.53835-2.022 1.9154-2.7502 3.13-1.1108 1.8534-1.4489 2.0777-1.7877 1.8792-0.069836-0.040949-0.25524-0.14964-0.29687-0.57722-0.17544-1.8032 2.2766-5.7327 3.5091-6.8238 0.04544-0.040245 0.09701-0.078111 0.1517-0.11455 0.60681 0.81905 1.3017 1.5621 2.0688 2.2181zm-2.0031-15.481-1.3811-3.1527c0.58616-0.14034 1.1531-0.37874 1.69-0.71482 0.03337-0.0206 0.06464-0.04262 0.097-0.06367l1.1438 2.5865c-0.57378 0.40798-1.0911 0.85724-1.5497 1.3447zm23.357-14.759c0.36567-0.30753 0.56828-0.32646 0.60199-0.31476 0.21878 0.07503 0.23323 0.46509 0.18336 1.3691-0.02995 0.54454-0.06402 1.1617 0.06155 1.7293 0.15308 0.69212 0.64293 1.2532 1.3106 1.5005 0.66735 0.24733 1.4045 0.14173 1.9718-0.2831 0.46508-0.34847 0.84176-0.83866 1.1744-1.2714 0.55142-0.71758 0.8163-1.0034 1.0313-0.91812 0.03373 0.01339 0.17475 0.15961 0.25112 0.63122 0.2776 1.711-0.69488 5.4183-2.6075 7.0333-0.93188 0.78672-1.9955 1.0925-3.163 0.90883h3.53e-4c-0.55658-0.08772-1.0973-0.29411-1.6078-0.61368-1.0303-0.64396-1.6243-1.5397-1.817-2.7382-0.39697-2.4716 1.2828-5.9164 2.6089-7.033zm-2.7337 13.415 1.1438-2.5868c0.03267 0.02097 0.06402 0.04298 0.09701 0.06402 0.53697 0.33574 1.1042 0.57413 1.69 0.71482l-1.3811 3.1531c-0.45854-0.48778-0.97591-0.93704-1.5497-1.345zm1.7668 14.722c1.2325 1.0908 3.6845 5.0203 3.5088 6.8235-0.04166 0.42759-0.22703 0.53629-0.29687 0.57722-0.3385 0.19883-0.67698-0.026155-1.7877-1.8792-0.72789-1.2146-1.5531-2.5913-2.7502-3.13-0.27554-0.12418-0.5755-0.21981-0.89714-0.28861 0.7764-0.66563 1.4713-1.4121 2.0705-2.2184 0.05504 0.03681 0.10698 0.074677 0.15273 0.11558zm4.5431-5.12c1.3553 0.93429 4.2638 4.5387 4.3072 6.3498 0.01029 0.42965-0.16064 0.56003-0.22462 0.60922-0.31235 0.2377-0.67492 0.056448-2.0017-1.6498-0.86962-1.1176-1.8548-2.3849-3.108-2.775-0.62985-0.19608-1.3512-0.24768-2.1548-0.15755 0.37495-0.88131 0.63295-1.776 0.77502-2.666 1.087-0.13794 1.9319-0.03848 2.4069 0.2893z" stroke-width=".088063"/>
 <path stroke="currentColor" fill="currentColor" d="m21.016-19.388c-0.3612-0.05575-0.69865 0.19091-0.75472 0.55177-0.01822 0.11799-0.15652 1.1775 0.62091 2.0853 0.65187 0.76057 1.7165 1.1465 3.1644 1.1465 1.4482 0 2.5125-0.38596 3.1644-1.1465 0.77742-0.9078 0.63948-1.9673 0.6209-2.0853-0.05575-0.36051-0.39352-0.60784-0.75438-0.55177-0.3605 0.05644-0.60749 0.39387-0.55142 0.75472 7.05e-4 0.0052 0.06815 0.57068-0.31888 1.0223-0.38356 0.44789-1.1307 0.68456-2.1606 0.68456-1.02 0-1.7633-0.23254-2.15-0.67216-0.39903-0.45476-0.33127-1.0189-0.3292-1.0347 0.0561-0.36085-0.19091-0.69831-0.55142-0.75472z" stroke-width=".088063"/>
</svg>
