<?xml version="1.0" encoding="UTF-8"?>
<svg width="60" height="52" version="1.1" viewBox="0 -37 45.088 39" xmlns="http://www.w3.org/2000/svg" xmlns:cc="http://creativecommons.org/ns#" xmlns:dc="http://purl.org/dc/elements/1.1/" xmlns:rdf="http://www.w3.org/1999/02/22-rdf-syntax-ns#">
 <metadata>
  <rdf:RDF>
   <cc:Work rdf:about="">
    <dc:format>image/svg+xml</dc:format>
    <dc:type rdf:resource="http://purl.org/dc/dcmitype/StillImage"/>
    <dc:title/>
   </cc:Work>
  </rdf:RDF>
 </metadata>
 <path stroke="currentColor" fill="currentColor" d="m42.919-17.383c-10.102-1.8224-1.9e-4 6.4e-5 -1.9e-4 6.4e-5 0.04227 0.06913-1.2393-0.92665 0 0-0.52047-0.46267-2.9045-2.7946-3.2826-3.0141-1.2948-0.75198-3.2332-0.36602-4.5861 0.0671l1.3395-3.0574c0.96353-0.02237 2.1262-0.3151 3.2559-1.2693 2.1789-1.8397 3.4338-5.948 3.0595-8.2545-0.1751-1.0798-0.67629-1.4919-1.066-1.647-1.1778-0.4699-1.9821 0.57653-2.5693 1.3405-0.29411 0.38287-0.59855 0.77881-0.91847 1.0189-0.43377 0.32508-1.0829 0.08252-1.1995-0.44512-0.08629-0.39044-0.05883-0.88889-0.03231-1.3712 0.05328-0.96215 0.12589-2.28-1.0736-2.6918-0.39697-0.13622-1.0454-0.15101-1.8823 0.55384-1.7877 1.5046-3.5149 5.4375-3.0626 8.2531 0.17028 1.0616 0.59683 1.9646 1.2704 2.7l-1.2215 2.7623c-0.1235-0.06843-0.24905-0.13554-0.37633-0.2009 0.16821-1.076-0.33918-2.0296-1.1864-2.194-0.699-0.13554-1.3849 0.31269-1.742 1.0688-0.09803-0.02721-0.19641-0.05363-0.29583-0.07944-2.5094-0.64877-4.6061-0.63673-4.8053-0.63364-0.19918-0.0026-2.2958-0.01515-4.8049 0.63364-0.09942 0.0258-0.1978 0.05232-0.29549 0.07944-0.35741-0.7561-1.043-1.204-1.7416-1.0688-0.84726 0.16443-1.3547 1.1176-1.1868 2.1937-0.12762 0.06535-0.25284 0.13244-0.37633 0.20124l-1.2212-2.7623c0.6732-0.73546 1.0997-1.6385 1.2704-2.6997 0.45202-2.8156-1.2752-6.7488-3.0629-8.2535-0.83694-0.7045-1.4857-0.69005-1.8823-0.55384-1.1995 0.41176-1.1269 1.7296-1.0736 2.6918 0.02651 0.48228 0.05398 0.98074-0.03231 1.3715-0.11661 0.52768-0.76539 0.76951-1.1995 0.44478-0.31991-0.23976-0.62435-0.63604-0.91847-1.0189-0.58719-0.76401-1.3911-1.8104-2.5693-1.3405-1.3206 0.52665-1.3068 2.7857-0.85345 4.7237-0.01738-0.06811-0.46673-1.0457 0 0-0.32646 0.16306 0.78717 2.323 0.95057 2.6494 0.53251 1.065 1.1706 1.9157 1.8964 2.5287 1.1297 0.95389 2.292 1.2466 3.2559 1.269l1.3399 3.0578c-1.3529-0.43309-3.292-0.8194-4.5868-0.06746-1.4909 0.86514-5.1826 4.5029-5.4375 7.0065-0.092185 0.9078 0.28173 1.4496 0.61197 1.744 0.2893 0.25834 0.65532 0.42656 1.0454 0.44238 0.43 0.01752 0.84383-0.14758 1.1992-0.37908 0.5786-0.37737 1.141-0.99518 1.7365-1.6491 0.82249-0.90367 1.7547-1.9277 2.6302-2.1276 0.51324-0.11696 1.1238-0.09598 1.819 0.06155-0.06604 0.50636-0.09288 1.0206-0.07847 1.5397-1.3034-0.12624-2.3213 0.05505-3.0316 0.54456-1.4186 0.97797-4.818 4.8906-4.8782 7.4065-0.021663 0.91228 0.39318 1.4235 0.74509 1.6918 0.34193 0.2604 0.75714 0.4011 1.1878 0.35122 0.38699-0.044735 0.74888-0.22704 1.0547-0.46199 0.54763-0.42105 1.0609-1.0805 1.6037-1.7788 0.74991-0.96456 1.6003-2.0578 2.4575-2.3244 0.66426-0.20709 1.5081-0.18782 2.5094 0.055038 0.01061 0.017877 0.02131 0.035754 0.03197 0.05363-0.10491 0.070186-0.20364 0.14516-0.29445 0.22532-1.2903 1.1424-4.1923 5.4365-3.9484 7.9415 0.088753 0.90815 0.56209 1.3653 0.94393 1.5892 0.38596 0.22636 0.83418 0.31235 1.2704 0.19264 0.35913-0.098727 0.67836-0.31441 0.94254-0.57344 0.49295-0.48366 0.92226-1.2005 1.377-1.9591 0.62813-1.0481 1.3402-2.236 2.1589-2.6044 0.52253-0.23529 1.1926-0.33161 1.9904-0.29033 2.183 1.367 4.7574 2.1317 7.4447 2.1317 1.6608-0.32783 6.0131-1.2324 7.4445-2.1316 0.79738-0.041301 1.4675 0.055039 1.99 0.29033 0.81871 0.36842 1.5308 1.5562 2.1589 2.6044 0.45476 0.75851 0.88441 1.4754 1.377 1.9591 0.26384 0.25903 0.58307 0.47506 0.94255 0.57344 0.43618 0.11937 0.88406 0.03408 1.2704-0.19264 0.38184-0.22393 0.85518-0.6811 0.94393-1.5892 0.24389-2.505-2.658-6.7994-3.9484-7.9415-0.09048-0.080137-0.18886-0.1548-0.29344-0.22463 0.01061-0.018229 0.02097-0.036457 0.03162-0.054687 1.0014-0.24252 1.8448-0.26143 2.5088-0.054687 0.85724 0.2666 1.7072 1.3598 2.4575 2.3244 0.54317 0.69831 1.0557 1.3578 1.6037 1.7785 0.30615 0.23529 0.66735 0.41657 1.0547 0.46198 0.43069 0.050548 0.84657-0.09081 1.1878-0.35121 0.35191-0.26832 0.76676-0.7795 0.74509-1.6914-0.06024-2.516-3.4596-6.4286-4.8785-7.4065-0.70966-0.4895-1.7272-0.67079-3.0299-0.54489 0.0148-0.51978-0.01171-1.034-0.07775-1.5401 0.69453-0.15686 1.3041-0.17784 1.8173-0.06086 0.87512 0.19952 1.8073 1.2239 2.6302 2.1273 0.59545 0.65428 1.1575 1.2721 1.7361 1.6491 0.33643 0.21913 0.72824 0.37633 1.1338 0.38011 0.41692 0.0035 0.80289-0.16787 1.1108-0.44307 0.82763-2.5502-0.37435-4.3181-1.5416-5.7366z" stroke-width=".088063"/>
</svg>
