<?xml version="1.0" encoding="UTF-8"?>
<svg width="60" height="49" version="1.1" viewBox="0 0 60 49" xml:space="preserve" xmlns="http://www.w3.org/2000/svg" xmlns:cc="http://creativecommons.org/ns#" xmlns:dc="http://purl.org/dc/elements/1.1/" xmlns:rdf="http://www.w3.org/1999/02/22-rdf-syntax-ns#"><metadata><rdf:RDF><cc:Work rdf:about=""><dc:format>image/svg+xml</dc:format><dc:type rdf:resource="http://purl.org/dc/dcmitype/StillImage"/><dc:title/></cc:Work></rdf:RDF></metadata>


<g transform="translate(-4.2253 -15.039)" stroke="currentColor" fill="currentColor"><g transform="matrix(.11719 0 0 .11719 4.2253 9.5392)">

		<path d="m511.89 454.11c-0.462-2.751-11.341-65.281-48.955-91.179 0.987-19.289-2.507-86.168-78.91-198.6-1.552-8.263-7.87-51.099 23.574-69.134 4.917-2.82 7.744-8.096 7.375-13.766-0.373-5.753-3.917-10.693-9.247-12.891-12.362-5.098-47.451-7.841-93.923 16.683-9.113-6.443-31.441-20.435-64.262-29.274-4.423-1.188-8.985 1.431-10.178 5.86-1.193 4.428 1.431 8.985 5.86 10.178 39.143 10.542 62.369 29.302 62.587 29.48 2.641 2.179 6.347 2.512 9.335 0.843 23.763-13.284 43.232-18.05 55.382-19.711 11.339-1.547 20.112-0.964 25.446 0.255-17.029 11.173-27.25 29.363-29.64 52.864-1.848 18.183 1.663 33.207 1.814 33.839 0.235 0.985 0.648 1.919 1.219 2.756 45.202 66.22 63.633 115.38 71.136 144.95 8.091 31.892 5.534 48.404 5.516 48.513-0.615 3.448 1.002 6.911 4.039 8.655 21.583 12.399 33.906 41.292 40.135 61.347-40.908-25.79-79.621-30.599-101.57-30.83 18.179-21.024 37.602-28.32 37.81-28.396 2.434-0.869 4.324-2.825 5.112-5.286s0.385-5.15-1.09-7.272c-22.653-32.586-48.109-61.543-75.66-86.068-3.427-3.048-8.675-2.745-11.725 0.682-3.049 3.426-2.745 8.674 0.681 11.725 24.301 21.63 46.936 46.872 67.381 75.128-11.479 6.24-30.972 19.588-46.718 44.26-1.755 2.75-1.728 6.273 0.055 9.005 1.784 2.734 5.009 4.163 8.236 3.667 0.634-0.097 63.878-9.23 125.85 39.618 1.499 1.18 3.316 1.782 5.142 1.782 1.457 0 2.92-0.383 4.231-1.159 2.956-1.754 4.528-5.138 3.961-8.523z"/>

</g><g transform="matrix(.11719 0 0 .11719 4.2253 9.5392)">

		<path d="m332.21 259.15c-23.85-18.485-49.536-34.25-76.371-46.901-6.482-9.465-13.173-21.725-16.576-37.635-0.959-4.484-5.369-7.341-9.857-6.384-4.484 0.959-7.343 5.372-6.384 9.857 4.199 19.638 12.728 34.49 20.35 45.317 0.104 0.156 0.209 0.311 0.324 0.461 2.86 4.034 5.586 7.516 7.887 10.444 0.964 1.226 2.021 2.571 2.977 3.833-50.706 4.468-76.243-83.233-76.576-84.4-1.246-4.413-5.835-6.98-10.246-5.739-4.415 1.246-6.983 5.834-5.738 10.248 0.19 0.673 3.202 11.202 9.27 25.074-36.312-8.096-73.688-11.237-111.35-9.342-14.534 0.731-24.181-0.138-30.57-1.504 19.491-1.468 48.305-6.176 69.331-20.625 3.78-2.598 4.739-7.767 2.141-11.547-2.596-3.781-7.766-4.74-11.547-2.143-17.994 12.364-43.962 16.442-61.524 17.739 5.569-3.635 12.559-7.554 19.527-10.794 2.317-1.076 4.01-3.16 4.59-5.648 9.884-42.445 56.443-59.821 56.922-59.996 34.497-12.519 69.009-17.035 102.57-13.438 4.561 0.493 8.654-2.81 9.143-7.371 0.489-4.56-2.81-8.653-7.371-9.143-36.101-3.875-73.112 0.95-109.98 14.33-2.202 0.792-52.786 19.482-66.452 67.943-3.542 1.771-9.245 4.748-15.005 8.289-14.588 8.969-21.298 16.404-21.659 23.997-8e-3 0.094-0.022 0.187-0.027 0.282-2e-3 0.064 2e-3 0.127 1e-3 0.192 2e-3 0.059-7e-3 0.117-7e-3 0.175 0 0.081 0.011 0.158 0.012 0.238 4e-3 0.146 0.01 0.29 0.022 0.434 0.173 5.455 2.418 10.409 6.564 14.35 9.109 8.662 26.825 12.203 54.16 10.826 22.161-1.116 44.217-0.399 65.996 2.099 4.709 11.291 23.674 51.592 59.802 66.497 3.029 1.251 6.18 1.872 9.275 1.872 3.703 0 7.328-0.89 10.573-2.657 5.561-3.027 9.152-7.922 10.391-14.158 10.706 7.081 22.101 10.698 33.966 10.698 2.649 0 5.32-0.179 8.013-0.54 3.47-0.466 11.597-1.556 14.425-8.52 0.77-1.897 0.991-3.718 0.795-5.528 16.663 9.409 32.743 20.092 48.04 31.947 1.514 1.174 3.304 1.741 5.081 1.741 2.479 0 4.934-1.106 6.57-3.217 2.81-3.627 2.149-8.843-1.476-11.653zm-133.75-15.356c-1.517 0.826-3.599 0.834-5.572 0.019-23.615-9.743-39.048-33.949-46.491-48.4 11.613 1.927 23.129 4.376 34.525 7.336 1.066 1.89 2.172 3.786 3.333 5.679 4.007 6.542 8.205 12.407 12.569 17.594 0.06 0.149 0.113 0.301 0.182 0.45 2.02 4.345 6.206 14.736 1.454 17.322z"/>

</g><g transform="matrix(.11719 0 0 .11719 4.2253 9.5392)">

		<path d="m116.74 103.75c-5.267 0-9.552 4.278-9.552 9.537s4.285 9.536 9.552 9.536 9.552-4.277 9.552-9.536-4.285-9.537-9.552-9.537z"/>

</g></g>















</svg>
