<?xml version="1.0" encoding="UTF-8"?>
<svg width="60" height="49" version="1.1" viewBox="0 0 60 49" xml:space="preserve" xmlns="http://www.w3.org/2000/svg" xmlns:cc="http://creativecommons.org/ns#" xmlns:dc="http://purl.org/dc/elements/1.1/" xmlns:rdf="http://www.w3.org/1999/02/22-rdf-syntax-ns#"><metadata><rdf:RDF><cc:Work rdf:about=""><dc:format>image/svg+xml</dc:format><dc:type rdf:resource="http://purl.org/dc/dcmitype/StillImage"/><dc:title/></cc:Work></rdf:RDF></metadata>


<g transform="translate(-2.2253 -15.039)" stroke="currentColor" fill="currentColor"><g transform="translate(-1.9707 .02929)"><g transform="matrix(.11719 0 0 .11719 4.2253 9.5392)">

		<path transform="matrix(8.5333 0 0 8.5333 -.25001 46.686)" d="m21.814 0.18164c-3.2072 0.040952-6.4566 0.65215-9.6973 1.8281-0.25805 0.092812-6.1856 2.2839-7.7871 7.9629-0.41508 0.20754-1.0828 0.55574-1.7578 0.9707-1.7095 1.0511-2.4968 1.9227-2.5391 2.8125-9.3749e-4 0.01102-0.0033203 0.02207-0.0039062 0.0332-2.3438e-4 0.0075 1.1718e-4 0.01387 0 0.02149 2.3437e-4 0.0069 0 0.01469 0 0.02148 0 0.0095 0.0018359 0.01797 0.0019531 0.02734 4.6875e-4 0.01711 5.4688e-4 0.03391 0.0019531 0.05078 0.020273 0.63926 0.28367 1.2198 0.76953 1.6816 1.0675 1.0151 3.1424 1.4309 6.3457 1.2695 2.597-0.13078 5.1822-0.04664 7.7344 0.24609 0.55184 1.3232 2.7741 6.0463 7.0078 7.793 0.35496 0.1466 0.7252 0.21875 1.0879 0.21875 0.43394 0 0.85801-0.10348 1.2383-0.31055 0.65168-0.35473 1.0736-0.92938 1.2188-1.6602 1.2546 0.8298 2.59 1.2539 3.9805 1.2539 0.31043 0 0.62191-0.0202 0.9375-0.0625 0.40664-0.05461 1.36-0.18391 1.6914-1 1.5266-0.69134 6.1118 3.5454 8.2676 5.2129 2.8478 2.5348 5.5006 5.4915 7.8965 8.8027-1.3452 0.73125-3.6313 2.2963-5.4766 5.1875-0.20566 0.32226-0.20113 0.73453 0.0078 1.0547 0.20906 0.32039 0.58668 0.48781 0.96484 0.42969 0.0743-0.01137 7.4854-1.0818 14.748 4.6426 0.17566 0.13828 0.38953 0.20898 0.60352 0.20898 0.17074 0 0.34051-0.04383 0.49414-0.13476 0.34641-0.20555 0.53129-0.60332 0.46484-1-0.05413-0.32238-1.3284-7.6487-5.7363-10.684-1.008-11.533-14.24-26.499-6.4844-31.377 0.57621-0.33047 0.90652-0.94883 0.86328-1.6133-0.043711-0.67418-0.45938-1.2522-1.084-1.5098-1.4487-0.59742-5.5599-0.91882-11.006 1.9551-1.0679-0.75504-7.7163-3.1478-11.562-4.1836-1.0576-0.11353-2.1224-0.16404-3.1914-0.15039z" stroke-width=".11719"/>

</g></g></g>















</svg>
