<?xml version="1.0" encoding="UTF-8"?>
<svg width="60" height="49" version="1.1" viewBox="0 0 60 49" xml:space="preserve" xmlns="http://www.w3.org/2000/svg" xmlns:cc="http://creativecommons.org/ns#" xmlns:dc="http://purl.org/dc/elements/1.1/" xmlns:rdf="http://www.w3.org/1999/02/22-rdf-syntax-ns#"><metadata><rdf:RDF><cc:Work rdf:about=""><dc:format>image/svg+xml</dc:format><dc:type rdf:resource="http://purl.org/dc/dcmitype/StillImage"/><dc:title/></cc:Work></rdf:RDF></metadata>


<g transform="translate(-2.2253 -15.039)" stroke="currentColor" fill="currentColor"><g transform="translate(-1.9707 .02929)"><g transform="matrix(.11719 0 0 .11719 4.2253 9.5392)">

		<path d="m511.89 454.11c-0.462-2.751-11.341-65.281-48.955-91.179-8.6017-98.413-121.52-226.11-55.336-267.74 4.917-2.82 7.744-8.096 7.375-13.766-0.373-5.753-3.917-10.693-9.247-12.891-12.362-5.098-47.451-7.841-93.923 16.683-9.113-6.443-65.846-26.869-98.667-35.708l130.61 240.82c24.301 21.63 46.936 46.872 67.381 75.128-11.479 6.24-30.972 19.588-46.718 44.26-1.755 2.75-1.728 6.273 0.055 9.005 1.784 2.734 5.009 4.163 8.236 3.667 0.634-0.097 63.878-9.23 125.85 39.618 1.499 1.18 3.316 1.782 5.142 1.782 1.457 0 2.92-0.383 4.231-1.159 2.956-1.754 4.528-5.138 3.961-8.523z"/>

</g><g transform="matrix(.11719 0 0 .11719 4.2253 9.5392)">
		<path d="m213.13 49.511c-36.101-3.875-73.112 0.95-109.98 14.33-2.202 0.792-52.786 19.482-66.452 67.943-3.542 1.771-9.245 4.748-15.005 8.289-14.588 8.969-21.298 16.404-21.659 23.997-8e-3 0.094-0.022 0.187-0.027 0.282-2e-3 0.064 2e-3 0.127 1e-3 0.192 2e-3 0.059-7e-3 0.117-7e-3 0.175 0 0.081 0.011 0.158 0.012 0.238 4e-3 0.146 0.01 0.29 0.022 0.434 0.173 5.455 2.418 10.409 6.564 14.35 9.109 8.662 26.825 12.203 54.16 10.826 22.161-1.116 44.217-0.399 65.996 2.099 4.709 11.291 23.674 51.592 59.802 66.497 3.029 1.251 6.18 1.872 9.275 1.872 3.703 0 7.328-0.89 10.573-2.657 5.561-3.027 9.152-7.922 10.391-14.158 10.706 7.081 22.101 10.698 33.966 10.698 2.649 0 5.32-0.179 8.013-0.54 3.47-0.466 11.597-1.556 14.425-8.52 13.027-5.8995 52.15 30.243 70.546 44.472z" stroke="#000"/>
	</g></g></g>















</svg>
