<?xml version="1.0" encoding="UTF-8"?>
<svg width="60" height="54" version="1.1" viewBox="0 -26 45.088 40.5" xmlns="http://www.w3.org/2000/svg" xmlns:cc="http://creativecommons.org/ns#" xmlns:dc="http://purl.org/dc/elements/1.1/" xmlns:rdf="http://www.w3.org/1999/02/22-rdf-syntax-ns#">
 <metadata>
  <rdf:RDF>
   <cc:Work rdf:about="">
    <dc:format>image/svg+xml</dc:format>
    <dc:type rdf:resource="http://purl.org/dc/dcmitype/StillImage"/>
    <dc:title/>
   </cc:Work>
  </rdf:RDF>
 </metadata>
 <path stroke="currentColor" fill="currentColor" d="m33.311 12.058c-0.29411-0.21568-0.70725-0.15273-0.92362 0.14139-0.0881 0.12005-0.18954 0.23288-0.30066 0.33505-0.42621 0.39078-0.97935 0.60646-1.5573 0.60646-0.6443 0-1.2632-0.2721-1.6986-0.74647-0.0488-0.0533-0.0967-0.10698-0.14516-0.16065-4e-3 -5e-3 -9e-3 -0.01-0.0134-0.0148-1.2542-1.3942-2.2914-2.8744-3.1214-4.4602-0.0175-0.0447-0.0399-0.0881-0.0674-0.12865-0.87409-1.699-1.5122-3.5191-1.9271-5.4836-0.10217-0.48435-0.51875-0.82215-1.0127-0.82215-0.49432 0-0.91056 0.3378-1.0127 0.82215-0.41485 1.9649-1.0533 3.785-1.9274 5.4836-0.0275 0.0406-0.0495 0.0839-0.0674 0.12865-0.82972 1.5858-1.8672 3.066-3.1214 4.4602-4e-3 5e-3 -9e-3 0.01-0.0134 0.0145-0.0482 0.0537-0.0963 0.10767-0.14516 0.16099-0.43516 0.47437-1.0544 0.74647-1.6986 0.74647-0.57791 0-1.1307-0.21568-1.5569-0.60646-0.93636-0.8593-0.99896-2.3196-0.14001-3.2559 2.2136-2.4121 3.5965-5.1641 4.2274-8.4131 0.0557-0.2862-0.0829-0.57516-0.34125-0.71069-0.25834-0.13554-0.57481-0.0857-0.7788 0.1228-1.1214 1.1445-2.4774 1.9677-3.9604 2.4241-0.0382 8e-3 -0.075 0.0182-0.11042 0.0323-0.85586 0.2518-1.7526 0.38252-2.6701 0.38252-0.91846 0-1.8166-0.13072-2.6739-0.38252-0.0113-3e-3 -0.023-7e-3 -0.0347-0.01-1.483-0.44169-2.8417-1.2473-3.9669-2.3722-0.24458-0.24492-0.42725-0.53456-0.54042-0.85035-3e-3 -0.0103-7e-3 -0.0206-0.0107-0.031-0.0833-0.24355-0.12591-0.50223-0.1235-0.7678 5e-3 -0.62297 0.2549-1.2047 0.70347-1.6378 0.88579-0.85654 2.3553-0.82352 3.2755 0.0733 0.90677 0.88338 2.1039 1.3701 3.3708 1.3701 0.96525 0 1.8975-0.28483 2.6966-0.82387 1.5036-1.0148 1.9226-3.0963 0.93394-4.6402-1.183-1.8466-1.8084-3.9869-1.8084-6.1898 0-1.5752 0.31269-3.1011 0.92913-4.5352 0.14413-0.33505-0.0107-0.72376-0.34571-0.86789-0.33506-0.14414-0.72377 0.011-0.86756 0.34605-0.68799 1.5999-1.0368 3.3013-1.0368 5.0571 0 2.4561 0.69762 4.8431 2.0168 6.9026 0.60509 0.94461 0.35363 2.2153-0.56037 2.8321-0.57963 0.39112-1.2566 0.59786-1.9573 0.59786-0.92087 0-1.7905-0.35328-2.4492-0.99518-1.4506-1.4135-3.6979-1.4475-5.1155-0.077-0.70519 0.6818-1.098 1.5968-1.1063 2.5765-3e-3 0.29893 0.031 0.59202 0.098 0.87478-0.99139 1.3949-0.8507 3.3357 0.38527 4.572 0.69315 0.69315 1.6037 1.0399 2.5146 1.0399 0.81664 0 1.6326-0.28001 2.2924-0.83728 0.44307 1.4627 1.7895 2.507 3.3997 2.507 1.7582 0 3.2411-1.3079 3.5105-3.0017 0.8968-0.31098 1.7492-0.74097 2.538-1.2831-0.69659 2.1754-1.8208 4.0939-3.4069 5.8225-1.3516 1.473-1.2528 3.7705 0.21981 5.1221 0.67079 0.61541 1.5408 0.95424 2.4506 0.95424 0.94736 0 1.86-0.37427 2.5342-1.0327 0.3237 0.0929 0.65325 0.13966 0.98073 0.13966 0.92088 0 1.8225-0.36085 2.5067-1.0451 1.2439-1.2439 1.367-3.2174 0.35948-4.6054 0.67285-1.3619 1.2064-2.7967 1.6047-4.3151 0.39834 1.5184 0.93188 2.9532 1.6047 4.3151-1.0079 1.388-0.88441 3.3615 0.35948 4.6054 0.6842 0.68421 1.5858 1.0451 2.5067 1.0451 0.32714 0 0.65703-0.0468 0.98038-0.13966 0.67423 0.6584 1.5872 1.0327 2.5346 1.0327 0.90952 0 1.7798-0.33883 2.4503-0.95424 0.1744-0.15996 0.33333-0.33677 0.4723-0.52597 0.21603-0.29412 0.15273-0.7076-0.14104-0.92363zm-31.338-8.8541c-0.58169-0.5817-0.7764-1.4118-0.57619-2.1603 0.0695 0.0832 0.14276 0.16443 0.2205 0.24217 0.93223 0.93223 2.0058 1.6718 3.172 2.1998-0.86756 0.57619-2.0519 0.48228-2.8163-0.28173zm7.2727 2.3226c-0.87856 0-1.6498-0.52253-2.0131-1.2728 0.65084 0.12109 1.3175 0.18404 1.9938 0.18404 0.69143 0 1.3725-0.065 2.0365-0.19195-0.36085 0.75507-1.1335 1.2807-2.0172 1.2807zm10.4 6.0629c-0.41383 0.41383-0.95459 0.6388-1.5105 0.65531 0.76986-0.93807 1.452-1.9126 2.0492-2.9284 0.24974 0.77537 0.0709 1.6636-0.53869 2.2731zm5.7963 0c-0.60956-0.60956-0.78878-1.4978-0.53869-2.2731 0.59717 1.0158 1.2793 1.9904 2.0492 2.9284-0.55624-0.0165-1.0967-0.24148-1.5105-0.65531zm4.2373-24.4c0.36464 0 0.66047-0.2955 0.66047-0.66047v-1.2043c0-0.36464-0.29583-0.66047-0.66047-0.66047-0.36463 0-0.66047 0.29583-0.66047 0.66047v1.2043c0 0.36497 0.29584 0.66047 0.66047 0.66047zm-4.2126 0.26109c0-2.1899-1.9742-2.1899-2.9229-2.1899-0.94874 0-2.9229 0-2.9229 2.1899 0 1.7602 1.3113 3.1919 2.9229 3.1919 1.6116 0 2.9229-1.4317 2.9229-3.1919zm-4.5249 0c0-0.63054 0.13829-0.86893 1.602-0.86893 1.4637 0 1.602 0.23839 1.602 0.86893 0 1.0316-0.71861 1.871-1.602 1.871-0.88338 0-1.602-0.83935-1.602-1.871zm-4.873-0.92156v-1.2043c0-0.36464-0.29584-0.66047-0.66047-0.66047-0.36498 0-0.66082 0.29583-0.66082 0.66047v1.2043c0 0.36497 0.29584 0.66047 0.66082 0.66047 0.36463 0 0.66047-0.2955 0.66047-0.66047zm28.364 13.037c0.0671-0.28276 0.10113-0.57619 0.0984-0.87478-8e-3 -0.9797-0.4011-1.8951-1.1063-2.5765-1.4179-1.3705-3.6649-1.3364-5.1159 0.077-0.65841 0.6419-1.5284 0.99518-2.4489 0.99518-0.70072 0-1.3777-0.20674-1.9573-0.59786-0.91365-0.61644-1.1627-1.8906-0.55521-2.8404 1.3254-2.0733 2.0213-4.475 2.0113-6.9459-0.0134-3.3636-1.3326-6.5424-3.7152-8.9514-2.3828-2.409-5.5469-3.7626-8.9098-3.8115-4.0351-0.0595-7.776 1.7269-10.27 4.8988-0.22566 0.28654-0.17578 0.70175 0.11077 0.92741 0.28689 0.22566 0.7021 0.17578 0.92776-0.11077 2.2373-2.8455 5.5968-4.4451 9.2125-4.3945 6.2191 0.0905 11.299 5.2256 11.323 11.447 9e-3 2.2167-0.61507 4.3704-1.8036 6.2291-0.99036 1.5487-0.57344 3.6333 0.92948 4.6474 0.79875 0.53904 1.731 0.82387 2.6962 0.82387 1.2669 0 2.464-0.48676 3.3708-1.3701 0.92018-0.89679 2.3897-0.92981 3.2755-0.0733 0.44857 0.43309 0.69831 1.0148 0.70381 1.6378 2e-3 0.26557-0.0406 0.52425-0.12384 0.7678-4e-3 0.0103-7e-3 0.0206-0.0107 0.031-0.11318 0.31613-0.29584 0.60577-0.54042 0.85035-1.1252 1.1252-2.4843 1.9309-3.9676 2.3725-0.011 3e-3 -0.0217 6e-3 -0.0323 9e-3 -0.85758 0.25214-1.7564 0.38321-2.6752 0.38321s-1.817-0.13141-2.6739-0.3839c-0.0337-0.0131-0.0692-0.0234-0.10527-0.031-1.484-0.45614-2.8404-1.2793-3.9621-2.4245-0.20399-0.20846-0.52046-0.25834-0.7788-0.12246-0.25835 0.13553-0.39697 0.42415-0.34125 0.71069 0.63089 3.2487 2.0138 6.0006 4.2274 8.4131 0.17303 0.18851 0.312 0.40178 0.41382 0.63364 0.10836 0.24767 0.35088 0.39559 0.60543 0.39559 0.0884 0 0.17819-0.0179 0.26454-0.0557 0.33401-0.14619 0.4864-0.53594 0.33986-0.86996-0.15995-0.36532-0.37874-0.70072-0.65049-0.9969-1.5862-1.7286-2.7103-3.647-3.4069-5.8225 0.78878 0.54214 1.6412 0.97213 2.538 1.2831 0.26934 1.6938 1.7523 3.0017 3.5105 3.0017 1.6102 0 2.9563-1.0444 3.3997-2.507 0.65978 0.55727 1.4757 0.83728 2.2924 0.83728 0.9109 0 1.8214-0.34674 2.5146-1.0399 1.2363-1.2363 1.377-3.1771 0.38528-4.572zm-8.5916 5.9604c-0.88372 0-1.6563-0.52562-2.0172-1.2807 0.66391 0.12693 1.345 0.19195 2.0361 0.19195 0.67664 0 1.343-0.063 1.9938-0.18438-0.36291 0.75059-1.1342 1.2731-2.0127 1.2731zm7.2724-2.3226c-0.76402 0.76401-1.9484 0.85792-2.816 0.28173 1.1662-0.52803 2.2394-1.2676 3.172-2.1998 0.0777-0.0777 0.15102-0.15892 0.2205-0.24217 0.20021 0.74853 5e-3 1.5786-0.57653 2.1603z" stroke-width=".088063"/>
</svg>
