<?xml version="1.0" encoding="UTF-8"?>
<svg width="60" height="54" version="1.1" viewBox="0 -26 45.088 40.5" xmlns="http://www.w3.org/2000/svg" xmlns:cc="http://creativecommons.org/ns#" xmlns:dc="http://purl.org/dc/elements/1.1/" xmlns:rdf="http://www.w3.org/1999/02/22-rdf-syntax-ns#">
 <metadata>
  <rdf:RDF>
   <cc:Work rdf:about="">
    <dc:format>image/svg+xml</dc:format>
    <dc:type rdf:resource="http://purl.org/dc/dcmitype/StillImage"/>
    <dc:title/>
   </cc:Work>
  </rdf:RDF>
 </metadata>
 <path stroke="currentColor" fill="currentColor" d="m34.332 11.222-22.674-31.11c-0.68799 1.5999-1.9296 4.9869-1.9296 6.7427 0 2.4561 0.69762 4.8431 2.0168 6.9026 0.60509 0.94461 0.35363 2.2153-0.56037 2.8321-0.57963 0.39112-1.2566 0.59786-1.9573 0.59786-0.92087 0-1.7905-0.35328-2.4492-0.99518-1.4506-1.4135-3.6979-1.4475-5.1155-0.077-0.70519 0.6818-1.098 1.5968-1.1063 2.5765-3e-3 0.29893 0.031 0.59202 0.098 0.87478-0.99139 1.3949-0.8507 3.3357 0.38527 4.572 0.69315 0.69315 1.6037 1.0399 2.5146 1.0399 0.81664 0 1.6326-0.28001 2.2924-0.83728 0.44307 1.4627 1.7895 2.507 3.3997 2.507 1.7582 0 3.2411-1.3079 3.5105-3.0017 0.8968-0.31098 1.7492-0.74097 2.538-1.2831-0.69659 2.1754-1.8208 4.0939-3.4069 5.8225-1.3516 1.473-1.2528 3.7705 0.21981 5.1221 0.67079 0.61541 1.5408 0.95424 2.4506 0.95424 0.94736 0 1.86-0.37427 2.5342-1.0327 0.3237 0.0929 0.65325 0.13966 0.98073 0.13966 0.92088 0 1.8225-0.36085 2.5067-1.0451 1.2439-1.2439 1.367-3.2174 0.35948-4.6054 0.67285-1.3619 1.2064-2.7967 1.6047-4.3151 0.39834 1.5184 0.93188 2.9532 1.6047 4.3151-1.0079 1.388-0.88441 3.3615 0.35948 4.6054 0.6842 0.68421 1.5858 1.0451 2.5067 1.0451 0.32714 0 0.65703-0.0468 0.98038-0.13966 0.67423 0.6584 1.5872 1.0327 2.5346 1.0327 0.90952 0 1.7798-0.33883 2.4503-0.95424 0.1744-0.15996 0.99316-0.77665 1.3521-2.2855-0.13442 0.21624 0.09859-0.06753 0 0zm10.101-11.656c0.0671-0.28276 0.10113-0.57619 0.0984-0.87478-8e-3 -0.9797-0.4011-1.8951-1.1063-2.5765-1.4179-1.3705-3.6649-1.3364-5.1159 0.077-0.65841 0.6419-1.5284 0.99518-2.4489 0.99518-0.70072 0-1.3777-0.20674-1.9573-0.59786-0.91365-0.61644-1.1627-1.8906-0.55521-2.8404 1.3254-2.0733 2.0213-4.475 2.0113-6.9459-0.0134-3.3636-1.3326-6.5424-3.7152-8.9514-2.3828-2.409-5.5469-3.7626-8.9098-3.8115-4.0351-0.0595-8.5825 2.8999-11.077 6.0719l22.674 31.11c-0.30156-2.0142-0.92615-2.6458-1.1323-2.8369-1.5862-1.7286-2.7103-3.647-3.4069-5.8225 0.78878 0.54214 1.6412 0.97213 2.538 1.2831 0.26934 1.6938 1.7523 3.0017 3.5105 3.0017 1.6102 0 2.9563-1.0444 3.3997-2.507 0.65978 0.55727 1.4757 0.83728 2.2924 0.83728 0.9109 0 1.8214-0.34674 2.5146-1.0399 1.2363-1.2363 1.377-3.1771 0.38528-4.572z" stroke-width=".088063"/>
</svg>
