<?xml version="1.0" encoding="UTF-8"?>
<svg width="60" height="45" version="1.1" viewBox="0 0 60 45" xml:space="preserve" xmlns="http://www.w3.org/2000/svg" xmlns:cc="http://creativecommons.org/ns#" xmlns:dc="http://purl.org/dc/elements/1.1/" xmlns:rdf="http://www.w3.org/1999/02/22-rdf-syntax-ns#"><metadata><rdf:RDF><cc:Work rdf:about=""><dc:format>image/svg+xml</dc:format><dc:type rdf:resource="http://purl.org/dc/dcmitype/StillImage"/><dc:title/></cc:Work></rdf:RDF></metadata>
<g transform="matrix(.11719 0 0 .11719 2 -7.5)" stroke="currentColor" fill="currentColor">


			<path d="m493.58 261.47c-42.643-76.335-112.75-123.01-194.91-131.66-41.195-52.03-170.46-65.211-176.04-65.754-3.635-0.375-7.292 1.208-9.521 4.167-2.24 2.938-2.792 6.833-1.458 10.281 12.673 32.896 25.656 70.313 29.092 85.621-23.473 10.741-43.99 22.163-57.217 31.681-28.688-45.896-87.25-46.469-89.927-46.469-5.896 0-10.667 4.771-10.667 10.667 0 61.802 21.542 92.823 35.948 106.67-14.406 13.843-35.948 44.864-35.948 106.67 0 5.896 4.771 10.667 10.667 10.667 2.677 0 61.24-0.573 89.927-46.469 17.573 12.646 47.957 28.637 81.159 41.931-7.337 11.867-11.086 30.742-11.086 57.871 0 5.896 4.771 10.667 10.667 10.667 3.172 0 75.708-0.629 111.83-43.003 91.87-1.775 170.98-49.891 217.48-133.13 1.802-3.229 1.802-7.166 0-10.395z"/>





</g>















</svg>
