<?xml version="1.0" encoding="UTF-8"?>
<svg width="60" height="45" version="1.1" viewBox="0 0 60 45" xml:space="preserve" xmlns="http://www.w3.org/2000/svg" xmlns:cc="http://creativecommons.org/ns#" xmlns:dc="http://purl.org/dc/elements/1.1/" xmlns:rdf="http://www.w3.org/1999/02/22-rdf-syntax-ns#"><metadata><rdf:RDF><cc:Work rdf:about=""><dc:format>image/svg+xml</dc:format><dc:type rdf:resource="http://purl.org/dc/dcmitype/StillImage"/><dc:title/></cc:Work></rdf:RDF></metadata>
<g transform="matrix(.11719 0 0 .11719 5.6509e-7 -7.5)" stroke="currentColor" fill="currentColor">


			<path d="m510.65 261.47c-42.643-76.335-112.75-123.01-194.91-131.66-41.195-52.03-170.46-65.211-176.04-65.754-3.635-0.375-7.292 1.208-9.521 4.167-2.24 2.938-2.792 6.833-1.458 10.281 12.673 32.896 25.656 70.313 29.092 85.621-23.473 10.741-43.99 22.163-57.217 31.681-28.688-45.896-87.25-46.469-89.927-46.469-5.896 0-10.667 4.771-10.667 10.667 0 61.802 21.542 92.823 35.948 106.67-14.406 13.843-35.948 44.864-35.948 106.67 0 5.896 4.771 10.667 10.667 10.667 2.677 0 61.24-0.573 89.927-46.469 17.573 12.646 47.957 28.637 81.159 41.931-7.337 11.867-11.086 30.742-11.086 57.871 0 5.896 4.771 10.667 10.667 10.667 3.172 0 75.708-0.629 111.83-43.003 91.87-1.775 170.98-49.891 217.48-133.13 1.802-3.229 1.802-7.166 0-10.395zm-355.74-174.05c35.841 5.188 94.682 17.952 127.93 40.799-30.66 1.198-69.78 12.79-105.24 27.336-4.722-18.75-15.199-48.043-22.691-68.135zm37.344 338.64c1.421-29.671 8.267-37.254 10.186-38.806 20.786 7.296 41.846 13.094 60.969 16.004-23.139 16.281-54.682 21.348-71.155 22.802zm8.948-39.198 4e-3 -0.029c0.029 0.01 0.059 0.018 0.087 0.029-0.06-8e-3 -0.027 9e-3 -0.091 0zm86.802-2.854c-62.333 0-164.25-51.177-183.12-70.49-2.021-2.073-4.781-3.208-7.625-3.208-0.646 0-1.302 0.063-1.948 0.177-3.49 0.646-6.438 3-7.844 6.26-14.396 33.385-48.25 42.5-65.844 44.99 3.333-66.844 34.969-84.708 36.594-85.573 3.51-1.802 5.677-5.438 5.729-9.385 0.052-3.99-2.188-7.708-5.719-9.583-1.427-0.76-33.25-18.5-36.604-85.521 17.583 2.573 51.562 11.823 65.844 44.927 1.406 3.26 4.354 5.615 7.844 6.26 3.521 0.656 7.094-0.49 9.573-3.031 18.875-19.313 120.79-70.49 183.12-70.49 84.219 0 157.17 42.677 201.04 117.33-43.875 74.657-116.82 117.33-201.04 117.33z"/>
			<path d="m320 266.67c0-49.083 19.365-79.146 19.563-79.448 3.229-4.917 1.875-11.521-3.021-14.771-4.896-3.229-11.5-1.906-14.75 2.969-0.948 1.417-23.125 35.333-23.125 91.25s22.177 89.833 23.125 91.25c2.052 3.083 5.438 4.75 8.885 4.75 2.031 0 4.083-0.583 5.906-1.792 4.906-3.271 6.229-9.885 2.958-14.792-0.197-0.29-19.541-29.884-19.541-79.416z"/>
			<path d="m293.88 172.45c-4.906-3.229-11.49-1.906-14.75 2.969-0.948 1.416-23.125 35.333-23.125 91.249 0 29.865 6.437 53.333 11.844 67.76 1.604 4.281 5.667 6.927 9.99 6.927 1.24 0 2.51-0.219 3.74-0.677 5.521-2.063 8.313-8.208 6.25-13.729-4.781-12.781-10.49-33.615-10.49-60.281 0-49.083 19.365-79.146 19.563-79.448 3.228-4.916 1.874-11.52-3.022-14.77z"/>
			<circle cx="384" cy="234.66" r="21.333"/>


</g>















</svg>
