<?xml version="1.0" encoding="UTF-8"?>
<svg width="28" height="59" enable-background="new 0 0 64 64" version="1.1" viewBox="0 0 3.5 7.375" xmlns="http://www.w3.org/2000/svg" xmlns:cc="http://creativecommons.org/ns#" xmlns:dc="http://purl.org/dc/elements/1.1/" xmlns:rdf="http://www.w3.org/1999/02/22-rdf-syntax-ns#">
 <metadata>
  <rdf:RDF>
   <cc:Work rdf:about="">
    <dc:format>image/svg+xml</dc:format>
    <dc:type rdf:resource="http://purl.org/dc/dcmitype/StillImage"/>
    <dc:title/>
   </cc:Work>
  </rdf:RDF>
 </metadata>
 <path stroke="currentColor" fill="currentColor" transform="translate(-2.2508 -.3125)" d="m5.1641 0.32617v0.044922c0 0.17372-0.14195 0.31836-0.31641 0.31836-0.10683 0-0.20647-0.055402-0.26562-0.14453-0.012864-0.019434-0.06331-0.019432-0.076172 0-0.10473 0.15815-0.33427 0.18897-0.47656 0.058594-0.012828-0.011832-0.032942-0.014191-0.048828-0.007813-0.017149 0.006869-0.026183 0.021988-0.027344 0.039062-0.011264 0.16556-0.15053 0.29688-0.31641 0.29688-0.036077 0-0.071814-0.008556-0.10742-0.021484-0.015076-0.005599-0.031229-0.002915-0.042969 0.005859-0.011605 0.008638-0.018495 0.026304-0.017578 0.041016 3.37e-5 0.001302 3.37e-5 0.002604 0 0.003906 0 3e-3 -0.00144-0.006686 0 0.007813 7.885e-4 0.002568 0.00144 0.005176 0.00195 0.007813 0 0.17417-0.14291 0.31641-0.31445 0.31641-0.00395-3.412e-4 -0.00787-9.932e-4 -0.011719-0.00195 0.00489 7.101e-4 -0.00751 3.539e-4 -0.00977 0h-0.00195c-0.013774-1.893e-4 -0.030158 0.00581-0.039063 0.017578-0.010057 0.013293-0.013188 0.028059-0.00781 0.042969 0.013093 0.035997 0.021484 0.071709 0.021484 0.10742 0 0.13194-0.084169 0.25093-0.20898 0.29688-0.014575 0.00537-0.024106 0.018906-0.027344 0.035156-0.00337 0.016975 0.00122 0.033229 0.011719 0.042969 0.064101 0.059335 0.10547 0.14113 0.10547 0.23047 0 0.10201-0.050634 0.19605-0.13281 0.25586-0.013328 0.0097-0.019021 0.024141-0.017578 0.041016 0.00145 0.016983 0.0106 0.030793 0.023437 0.037109 0.054515 0.026826 0.10223 0.065087 0.14062 0.10938 0.042086 0.051499 0.00185 0.12832-0.064449 0.12304-0.042615-0.0041325-0.08314-0.0058594-0.12305-0.0058594h-0.50781c-0.025918 0-0.044922 0.018894-0.044922 0.044922 0 0.026021 0.018997 0.044922 0.044922 0.044922 0.17445 0 0.31836 0.14391 0.31836 0.31836s-0.14464 0.31641-0.31836 0.31641c-0.025917 0-0.044922 0.018896-0.044922 0.044922 0 0.026021 0.018997 0.044922 0.044922 0.044922 0.30788 0 0.56055 0.25267 0.56055 0.56055 0 0.026036 0.018991 0.044922 0.044922 0.044922 0.30788 0 0.55859 0.25303 0.55859 0.56055 0 0.026037 0.01899 0.044922 0.044922 0.044922 0.025917 0 0.044922-0.018896 0.044922-0.044922 0-0.29016 0.22467-0.52773 0.50781-0.55469 0.023028-0.00282 0.046074 0.0051 0.0625 0.021484l0.11523 0.11719h-0.00195c0.12375 0.12375 0.19531 0.28918 0.19531 0.46484 0 0.18646-0.080098 0.36553-0.21875 0.49023l-0.41993 0.37695c-0.034608 0.03048-0.088217 0.023086-0.11328-0.015625l-0.089844-0.13672-0.078125 0.050781 0.11133 0.16797c0.02074 0.030981 0.015762 0.072462-0.011719 0.097656l-0.035156 0.03125c-0.074948 0.067413-0.1385 0.14359-0.19141 0.22852-0.018004 0.030168-0.054437 0.043931-0.087891 0.033203l-0.18555-0.0625-0.029297 0.087891 0.15625 0.050781c0.040357 0.013522 0.061568 0.057711 0.046875 0.097656-0.041871 0.1165-0.064453 0.23742-0.064453 0.36133v0.027344c3.756e-4 0.042223-0.033949 0.076548-0.076172 0.076172h-0.16406v0.089844h0.18164c0.037252 2.327e-4 0.068768 0.027601 0.074219 0.064453 0.081711 0.51151 0.52369 0.90234 1.0586 0.90234 0.59274 0 1.0723-0.47953 1.0723-1.0723 0-0.28586-0.10857-0.55388-0.31055-0.75586l-0.064453-0.064453c-0.00778-0.00782-0.020651-0.011719-0.033203-0.011719-0.22583 0-0.40625 0.18201-0.40625 0.4082 0 0.012761 0.0038 0.025323 0.011719 0.033203l0.11328 0.11328c0.073316 0.073316 0.11719 0.17294 0.11719 0.27734 0 0.27451-0.22592 0.49805-0.5 0.49805-0.27408 0-0.5-0.22354-0.5-0.49805v-0.066406c0-0.13825 0.058464-0.27083 0.16016-0.36523l0.90625-0.83984c0.39878-0.37026 0.62695-0.89707 0.62695-1.4414 0-0.6263-0.30206-1.2214-0.80859-1.5898l-0.4082-0.29688c-0.071656-0.05198-0.11328-0.13482-0.11328-0.22266 0-0.13437 0.09828-0.2466 0.22656-0.26953 0.036139-0.00629 0.071567 0.014312 0.083984 0.048828 0.029964 0.081345 0.07632 0.1564 0.13867 0.21875l0.80273 0.80273c0.010005 0.010056 0.024026 0.013672 0.033203 0.013672 0.012157 0 0.024549-0.00307 0.033203-0.011719l0.24219-0.24219c0.015736-0.015737 0.017249-0.040967 0.00586-0.058594l-0.11328-0.1582c-8.4e-6 -6.5e-4 -8.4e-6 -0.0013 0-0.00195-0.30203-0.42296-0.46798-0.91821-0.48242-1.4356-2.66e-5 -0.018766 0.0069363-0.03687 0.019531-0.050781 0.061943-0.07227 0.097656-0.16224 0.097656-0.26367v-0.044922z" stroke-width=".12097"/>
</svg>
