<?xml version="1.0" encoding="UTF-8"?>
<svg width="30" height="60" enable-background="new 0 0 64 64" version="1.1" viewBox="0 0 3.75 7.5" xmlns="http://www.w3.org/2000/svg" xmlns:cc="http://creativecommons.org/ns#" xmlns:dc="http://purl.org/dc/elements/1.1/" xmlns:rdf="http://www.w3.org/1999/02/22-rdf-syntax-ns#">
 <metadata>
  <rdf:RDF>
   <cc:Work rdf:about="">
    <dc:format>image/svg+xml</dc:format>
    <dc:type rdf:resource="http://purl.org/dc/dcmitype/StillImage"/>
    <dc:title/>
   </cc:Work>
  </rdf:RDF>
 </metadata>
 <path stroke="currentColor" fill="currentColor" d="m2.2816 1.3341c0.03351 0.09097 0.08468 0.17492 0.1552 0.24544l0.80432 0.80419c0.02359 0.02371 0.05456 0.03556 0.08552 0.03556 0.03097 0 0.06193-0.01186 0.08552-0.03544l0.24194-0.24194c0.04185-0.04185 0.0473-0.10778 0.01294-0.15581l-0.11262-0.15774c-0.29335-0.41081-0.4529-0.89141-0.46694-1.3942 0.07258-0.08468 0.11818-0.19318 0.11818-0.31331v-0.12097h-0.24192v0.12097c0 0.13343-0.10851 0.24194-0.24194 0.24194-0.08117 0-0.15653-0.04064-0.20165-0.10863-0.04476-0.06762-0.1569-0.06762-0.20165 0-0.07827 0.11819-0.25742 0.14214-0.36423 0.04427-0.03423-0.03157-0.08359-0.04052-0.12665-0.02323-0.04319 0.0173-0.0727 0.0577-0.07585 0.10403-0.0086 0.12641-0.11383 0.22548-0.23964 0.22548-0.02625 0-0.05298-0.0051-0.0819-0.0156-0.0381-0.01415-0.08105-0.0076-0.11371 0.01681-0.03266 0.02431-0.05081 0.06351-0.04827 0.10428 0 3e-3 0.0016 0.01246 0.0019 0.01548 0 0.13343-0.10839 0.24182-0.23867 0.24182h-1.21e-4c-0.0025-3.63e-4 -0.01427-0.0017-0.01682-0.0019-0.04028-0.0025-0.08068 0.01464-0.10548 0.04742-0.0248 0.03278-0.03145 0.07573-0.01754 0.11431 0.01065 0.02928 0.01573 0.05613 0.01573 0.08226 0 0.10016-0.06375 0.19089-0.15871 0.22585-0.03944 0.01452-0.06859 0.04851-0.07681 0.08976-0.0082 0.04125 0.0054 0.08383 0.03629 0.1125 0.05057 0.04681 0.07827 0.10948 0.07827 0.17673 0 0.07766-0.03665 0.14867-0.10064 0.19524-0.03423 0.02492-0.05298 0.06593-0.04936 0.10827 0.0036 0.04222 0.02903 0.07948 0.06714 0.09823 0.04548 0.02238 0.08456 0.05311 0.11613 0.08952-0.04331-0.0042-0.08673-0.0074-0.13077-0.0074h-0.50734c-0.06677 0-0.12097 0.05407-0.12097 0.12097 0 0.06689 0.05419 0.12097 0.12097 0.12097 0.13343 0 0.24194 0.10851 0.24194 0.24194s-0.10851 0.24194-0.24194 0.24194c-0.06677 0-0.12097 0.05407-0.12097 0.12097 0 0.06689 0.05419 0.12097 0.12097 0.12097 0.26685 0 0.48387 0.21702 0.48387 0.48387 0 0.0669 0.05419 0.12097 0.12097 0.12097 0.26686 0 0.48387 0.21702 0.48387 0.48387 0 0.0669 0.05419 0.12097 0.12097 0.12097 0.06677 0 0.12097-0.05407 0.12097-0.12097 0-0.25125 0.19318-0.45593 0.43839-0.47927l0.11673 0.11673c0.11008 0.11008 0.17068 0.25633 0.17068 0.41202 0 0.16488-0.07028 0.32286-0.19294 0.43318l-0.41915 0.37718-0.13415-0.20117-0.20129 0.13415 0.15375 0.23056-0.03544 0.03194c-0.08056 0.07246-0.14855 0.15617-0.20492 0.24665l-0.25815-0.08601-0.07657 0.22936 0.22827 0.07609c-0.04439 0.12351-0.06907 0.2544-0.06907 0.38806v0.02601h-0.2419v0.24194h0.25766c0.08746 0.5475 0.56165 0.96774 1.1335 0.96774 0.63363 0 1.1492-0.51556 1.1492-1.1492 0-0.30532-0.11891-0.59238-0.33484-0.80831l-0.06351-0.06351c-0.02262-0.02274-0.05347-0.03544-0.08552-0.03544-0.26686 0-0.48387 0.21702-0.48387 0.48387 0 0.03218 0.0127 0.0629 0.03544 0.08552l0.11359 0.11359c0.05903 0.05903 0.0929 0.14081 0.0929 0.22427 0 0.23347-0.18992 0.42339-0.42339 0.42339-0.23347 0-0.42339-0.18992-0.42339-0.42339v-0.06508c0-0.11734 0.04936-0.23032 0.13536-0.31016l0.90617-0.84157c0.41432-0.38468 0.65202-0.92976 0.65202-1.4953 0-0.65056-0.31415-1.2675-0.84036-1.6502l-0.40802-0.29673c-0.05153-0.03738-0.08226-0.09774-0.08226-0.16149 0-0.09811 0.07125-0.1794 0.16464-0.19609zm0.68081 2.4183 0.2371 0.0047c-0.0121 0.18169-0.05177 0.35891-0.11661 0.52694-0.07742-0.11504-0.11915-0.25052-0.11915-0.3923v-0.10536c0-0.01137-0.0011-0.02262-0.0013-0.03399zm0.13391-0.72822h-0.30823c-0.04077-0.08371-0.08831-0.16464-0.14274-0.24194h0.34016c0.04234 0.07802 0.08032 0.15835 0.11081 0.24194zm0.06774 0.24194c0.01742 0.08165 0.02831 0.16488 0.03423 0.24895l-0.25645-0.00508c-0.01319-0.08286-0.03254-0.16427-0.05746-0.24387zm-0.33714-0.72581h-0.32359c-0.06327-0.13343-0.10657-0.27496-0.12798-0.42133l0.08964 0.0652c0.13899 0.10113 0.25887 0.22258 0.36194 0.35613zm-0.95189-1.0101c0 0.14068 0.06798 0.27423 0.18181 0.3571l0.06133 0.04464c0.0065 0.35383 0.11746 0.69242 0.32371 0.98105 0.18314 0.25633 0.27992 0.55839 0.27992 0.87339v0.10536c0 0.23806 0.08819 0.4621 0.2475 0.63665-0.08976 0.15786-0.20323 0.3029-0.33835 0.42835l-0.90617 0.84157c-0.13512 0.12544-0.21266 0.30302-0.21266 0.48738v0.06508c0 0.36678 0.29843 0.66532 0.66532 0.66532s0.66532-0.29855 0.66532-0.66532c0-0.14722-0.05964-0.29129-0.16379-0.39532l-0.07379-0.07379c0.01851-0.0969 0.09496-0.17335 0.19173-0.19186l0.02371 0.02371c0.17032 0.1702 0.26407 0.39653 0.26407 0.63726 0 0.50032-0.40694 0.90726-0.90726 0.90726-0.50032 0-0.90726-0.40694-0.90726-0.90726v-0.08649c0-0.25682 0.10948-0.5025 0.30036-0.67428l0.63629-0.57266c0.17347-0.15617 0.27302-0.3796 0.27302-0.61306 0-0.19778-0.06956-0.38456-0.19645-0.53335h0.19645v-0.24194h-0.48387c-0.2521 0-0.47468 0.12919-0.60484 0.32504-0.08432-0.12665-0.20734-0.22524-0.35202-0.27919 0.13367-0.1079 0.29867-0.16681 0.47298-0.16681v-0.24194c-0.2406 0-0.46754 0.08528-0.64802 0.24036-0.05504-0.15363-0.16004-0.28294-0.29577-0.36895 0.16718-0.07415 0.34802-0.11335 0.53311-0.11335h0.04778v-0.24194h-0.04778c-0.15109 0-0.29976 0.02202-0.44238 0.06411 0.0029-0.02117 0.0063-0.04222 0.0063-0.06411 0-0.08806-0.02359-0.17068-0.06496-0.24194h0.08831c0.33254 0 0.64234 0.14891 0.85016 0.40863l0.12072 0.15085 0.18895-0.15121-0.12073-0.15085c-0.1598-0.1996-0.36907-0.34548-0.60339-0.42641-0.03206-0.10996-0.09436-0.20855-0.18133-0.28415 0.05468-0.0796 0.08516-0.17456 0.08516-0.27266 0-0.08056-0.02069-0.15968-0.05903-0.22984 0.11141-0.09024 0.18-0.22754 0.18-0.375 0-0.0051-1.21e-4 -0.01016-2.42e-4 -0.01524 0.17008-0.04379 0.30411-0.17794 0.3479-0.3479 0.19246 0.0034 0.36847-0.10669 0.44927-0.27339 0.15702 0.06024 0.34403 0.02915 0.47323-0.07464 0.08468 0.0681 0.19077 0.10633 0.30242 0.10633 0.04536 0 0.08831-0.0082 0.12992-0.01996 7e-3 0.08819 0.01947 0.1754 0.03484 0.2619h-0.16476v0.24194h0.21932c0.08516 0.31318 0.22379 0.61077 0.41637 0.88028l0.0531 0.07427-0.08395 0.08407-0.71879-0.71867c-0.0825-0.08262-0.12798-0.19234-0.12798-0.30919 0-0.0675 0.01597-0.135 0.04609-0.19536l0.06206-0.12411-0.21641-0.10827-0.06206 0.12411c-0.04645 0.0929-0.07101 0.19681-0.07149 0.30085-0.20601 0.03726-0.36302 0.21702-0.36302 0.43355z" stroke-width=".12097"/>
</svg>
