<?xml version="1.0" encoding="UTF-8"?>
<svg width="30" height="60" enable-background="new 0 0 64 64" version="1.1" viewBox="0 0 3.75 7.5" xmlns="http://www.w3.org/2000/svg" xmlns:cc="http://creativecommons.org/ns#" xmlns:dc="http://purl.org/dc/elements/1.1/" xmlns:rdf="http://www.w3.org/1999/02/22-rdf-syntax-ns#">
 <metadata>
  <rdf:RDF>
   <cc:Work rdf:about="">
    <dc:format>image/svg+xml</dc:format>
    <dc:type rdf:resource="http://purl.org/dc/dcmitype/StillImage"/>
    <dc:title/>
   </cc:Work>
  </rdf:RDF>
 </metadata>
 <path stroke="currentColor" fill="currentColor" d="m2.2816 1.3341c0.03351 0.09097 0.08468 0.17492 0.1552 0.24544l0.80432 0.80419c0.02359 0.02371 0.05456 0.03556 0.08552 0.03556 0.03097 0 0.06193-0.01186 0.08552-0.03544l0.24194-0.24194c0.04185-0.04185 0.0473-0.10778 0.01294-0.15581l-0.11262-0.15774c-0.29335-0.41081-0.4529-0.89141-0.46694-1.3942 0.07258-0.08468 0.11818-0.19318 0.11818-0.31331v-0.12097h-0.24192v0.12097c0 0.13343-0.10851 0.24194-0.24194 0.24194-0.08117 0-0.15653-0.04064-0.20165-0.10863-0.04476-0.06762-0.1569-0.06762-0.20165 0-0.07827 0.11819-0.25742 0.14214-0.36423 0.04427-0.03423-0.03157-0.08359-0.04052-0.12665-0.02323-0.04319 0.0173-0.0727 0.0577-0.07585 0.10403-0.0086 0.12641-0.11383 0.22548-0.23964 0.22548-0.02625 0-0.05298-0.0051-0.0819-0.0156-0.0381-0.01415-0.08105-0.0076-0.11371 0.01681-0.03266 0.02431-0.05081 0.06351-0.04827 0.10428 0 3e-3 0.0016 0.01246 0.0019 0.01548 0 0.13343-0.10839 0.24182-0.23867 0.24182h-1.21e-4c-0.0025-3.63e-4 -0.01427-0.0017-0.01682-0.0019-0.04028-0.0025-0.08068 0.01464-0.10548 0.04742-0.0248 0.03278-0.03145 0.07573-0.01754 0.11431 0.01065 0.02928 0.01573 0.05613 0.01573 0.08226 0 0.10016-0.06375 0.19089-0.15871 0.22585-0.03944 0.01452-0.06859 0.04851-0.07681 0.08976-0.0082 0.04125 0.0054 0.08383 0.03629 0.1125 0.05057 0.04681 0.07827 0.10948 0.07827 0.17673 0 0.07766-0.03665 0.14867-0.10064 0.19524-0.03423 0.02492-0.05298 0.06593-0.04936 0.10827 0.0036 0.04222 0.02903 0.07948 0.06714 0.09823 0.04548 0.02238 0.08456 0.05311 0.11613 0.08952-0.04331-0.0042-0.08673-0.0074-0.13077-0.0074h-0.50734c-0.06677 0-0.12097 0.05407-0.12097 0.12097 0 0.06689 0.05419 0.12097 0.12097 0.12097 0.13343 0 0.24194 0.10851 0.24194 0.24194s-0.10851 0.24194-0.24194 0.24194c-0.06677 0-0.12097 0.05407-0.12097 0.12097 0 0.06689 0.05419 0.12097 0.12097 0.12097 0.26685 0 0.48387 0.21702 0.48387 0.48387 0 0.0669 0.05419 0.12097 0.12097 0.12097 0.26686 0 0.48387 0.21702 0.48387 0.48387 0 0.0669 0.05419 0.12097 0.12097 0.12097 0.06677 0 0.12097-0.05407 0.12097-0.12097 0-0.25125 0.19318-0.45593 0.43839-0.47927l0.11673 0.11673c0.11008 0.11008 0.17068 0.25633 0.17068 0.41202 0 0.16488-0.07028 0.32286-0.19294 0.43318l-0.41915 0.37718-0.13415-0.20117-0.20129 0.13415 0.15375 0.23056-0.03544 0.03194c-0.08056 0.07246-0.14855 0.15617-0.20492 0.24665l-0.25815-0.08601-0.07657 0.22936 0.22827 0.07609c-0.04439 0.12351-0.06907 0.2544-0.06907 0.38806v0.02601h-0.2419v0.24194h0.25766c0.08746 0.5475 0.56165 0.96774 1.1335 0.96774 0.63363 0 1.1492-0.51556 1.1492-1.1492 0-0.30532-0.11891-0.59238-0.33484-0.80831l-0.06351-0.06351c-0.02262-0.02274-0.05347-0.03544-0.08552-0.03544-0.26686 0-0.48387 0.21702-0.48387 0.48387 0 0.03218 0.0127 0.0629 0.03544 0.08552l0.11359 0.11359c0.05903 0.05903 0.0929 0.14081 0.0929 0.22427 0 0.23347-0.18992 0.42339-0.42339 0.42339-0.23347 0-0.42339-0.18992-0.42339-0.42339v-0.06508c0-0.11734 0.04936-0.23032 0.13536-0.31016l0.90617-0.84157c0.41432-0.38468 0.65202-0.92976 0.65202-1.4953 0-0.65056-0.31415-1.2675-0.84036-1.6502l-0.40802-0.29673c-0.05153-0.03738-0.08226-0.09774-0.08226-0.16149 0-0.09811 0.07125-0.1794 0.16464-0.19609z" stroke-width=".12097"/>
</svg>
