<?xml version="1.0" encoding="UTF-8"?>
<svg width="60" height="56" enable-background="new 0 0 64 64" version="1.1" viewBox="0 0 7.5 7" xmlns="http://www.w3.org/2000/svg" xmlns:cc="http://creativecommons.org/ns#" xmlns:dc="http://purl.org/dc/elements/1.1/" xmlns:rdf="http://www.w3.org/1999/02/22-rdf-syntax-ns#">
 <metadata>
  <rdf:RDF>
   <cc:Work rdf:about="">
    <dc:format>image/svg+xml</dc:format>
    <dc:type rdf:resource="http://purl.org/dc/dcmitype/StillImage"/>
    <dc:title/>
   </cc:Work>
  </rdf:RDF>
 </metadata>
 <path stroke="currentColor" fill="currentColor" d="m7.4229 0.99404-0.038536 0.038536c-0.14902 0.14902-0.39487 0.15133-0.54453 0.0016752-0.091645-0.091645-0.1296-0.22465-0.10388-0.35185 0.005636-0.027706-0.03764-0.070979-0.065343-0.065343-0.22551 0.045819-0.44885-0.12464-0.45908-0.35855-8.547e-4 -0.021154-0.016086-0.040432-0.035184-0.048589-0.020603-0.00882-0.041323-0.003603-0.056966 0.010057-0.15169 0.13236-0.3838 0.12554-0.5261-0.016755-0.030948-0.030948-0.054265-0.068944-0.073721-0.11058-0.00813-0.017736-0.024289-0.029291-0.041887-0.031835-0.017365-0.002548-0.038431 0.006697-0.050264 0.020106-0.00109 0.001146-0.00221 0.002269-0.00335 0.003348-0.00257 0.002572 0.0045-0.006976-0.0067 0.006697-0.00153 0.002875-0.0032 0.005678-0.00503 0.008371-0.14941 0.14941-0.39402 0.14883-0.54118 0.001674-0.00309-0.003676-0.0059-0.007607-0.00838-0.011731 0.00359 0.004804-0.00675-0.006139-0.00838-0.008383l-0.00167-0.001674c-0.011659-0.011974-0.030855-0.020887-0.048589-0.01843-0.020031 0.002778-0.035383 0.012756-0.04356 0.030161-0.019648 0.042112-0.043084 0.079944-0.07372 0.11058-0.11318 0.11318-0.28746 0.14305-0.43395 0.075396-0.017109-0.007898-0.036897-0.004464-0.053615 0.006697-0.017453 0.011671-0.027459 0.029552-0.026807 0.046913 0.00409 0.10589-0.030591 0.21154-0.10723 0.28818-0.087506 0.087506-0.21162 0.12475-0.33342 0.10555-0.019754-0.00312-0.037026 0.00439-0.050264 0.020106-0.013326 0.015812-0.017323 0.035508-0.011731 0.051939 0.023753 0.069778 0.031859 0.14353 0.026807 0.21446-0.00808 0.080281-0.10849 0.11166-0.16084 0.050265-0.033016-0.040079-0.066299-0.076325-0.10053-0.11056l-0.43562-0.43562c-0.022234-0.022234-0.054744-0.022328-0.077071 0-0.022322 0.022322-0.02224 0.054833 0 0.077071 0.14965 0.14965 0.14965 0.39655 1e-7 0.5462-0.14965 0.14965-0.39551 0.14735-0.54453-0.00167-0.022232-0.022233-0.054745-0.022326-0.077072 0-0.022322 0.022322-0.022239 0.054833 0 0.077071 0.26411 0.26411 0.26411 0.69761 0 0.96172-0.022335 0.022334-0.022245 0.054827 0 0.077071 0.26411 0.26411 0.26212 0.69625-0.00168 0.96004-0.022336 0.022336-0.022245 0.054827 0 0.077071 0.022233 0.022232 0.054746 0.022326 0.077072 0 0.24891-0.24891 0.64543-0.25998 0.91145-0.040212 0.022173 0.017335 0.035149 0.0439 0.035185 0.072045l-0.00167 0.19938-0.00167-0.00167c-9e-7 0.21231-0.080524 0.41562-0.23121 0.56631-0.15995 0.15995-0.38228 0.24486-0.6082 0.23289l-0.6836-0.03687c-0.055836-0.00354-0.09548-0.055871-0.083773-0.11058l0.040216-0.19435-0.11058-0.023457-0.048588 0.23959c-0.00878 0.044368-0.04864 0.075682-0.093826 0.073721l-0.056966-0.00335c-0.12212-0.00647-0.24199 0.00437-0.36023 0.031835-0.041324 0.010433-0.084384-0.00901-0.10388-0.046913l-0.10555-0.21278-0.10053 0.050264 0.090476 0.1776c0.02302 0.046219 0.003308 0.10232-0.043562 0.12398-0.13586 0.064019-0.25896 0.14838-0.36525 0.25467l-0.023457 0.023457c-0.035898 0.036543-0.094789 0.036543-0.13069 0l-0.14074-0.14074-0.077072 0.077071 0.15582 0.15582c0.031757 0.032156 0.035315 0.082669 0.00838 0.11896-0.3687 0.50889-0.32483 1.2233 0.13404 1.6822 0.50847 0.50847 1.3312 0.50847 1.8397 0 0.24522-0.24523 0.38201-0.56828 0.382-0.91481v-0.11058c3.43e-5 -0.013383-0.00767-0.027768-0.018429-0.038536-0.19372-0.19373-0.50463-0.19236-0.69867 0.00167-0.010946 0.010943-0.018463 0.024983-0.01843 0.038536v0.19435c0 0.12579-0.047827 0.24888-0.13739 0.33844-0.23548 0.23548-0.62104 0.23344-0.85616-0.00167-0.23512-0.23512-0.23716-0.62068-0.001675-0.85616l0.056966-0.056965c0.1186-0.1186 0.28248-0.18218 0.4507-0.17592l1.4979 0.056965c0.65971 0.024471 1.3074-0.23171 1.7743-0.69867 0.53727-0.53727 0.78866-1.3069 0.67019-2.0575l-0.095502-0.60484c-0.016879-0.10606 0.01848-0.21283 0.093826-0.28818 0.11526-0.11526 0.29585-0.12723 0.42557-0.036861 0.036397 0.025605 0.049115 0.073671 0.030158 0.11393-0.044077 0.095485-0.068692 0.19963-0.068694 0.30661l1e-7 1.3772c-4.38e-5 0.017209 0.00888 0.032338 0.016754 0.040212 0.010433 0.010433 0.023693 0.018425 0.038536 0.01843l0.41552 8e-7c0.026999-8e-7 0.04994-0.020346 0.055291-0.045238l0.038535-0.23289c5.503e-4 -5.649e-4 0.00111-0.00112 0.00167-0.00167 0.10374-0.62192 0.38622-1.1891 0.81763-1.6453 0.016076-0.016122 0.037579-0.025678 0.060316-0.026807 0.11513-0.00886 0.22295-0.055404 0.30996-0.14241l0.038536-0.038536z" stroke-width=".14675"/>
</svg>
