<?xml version="1.0" encoding="UTF-8"?>
<svg width="64" height="64" enable-background="new 0 0 64 64" version="1.1" viewBox="0 0 8 8" xmlns="http://www.w3.org/2000/svg" xmlns:cc="http://creativecommons.org/ns#" xmlns:dc="http://purl.org/dc/elements/1.1/" xmlns:rdf="http://www.w3.org/1999/02/22-rdf-syntax-ns#">
 <metadata>
  <rdf:RDF>
   <cc:Work rdf:about="">
    <dc:format>image/svg+xml</dc:format>
    <dc:type rdf:resource="http://purl.org/dc/dcmitype/StillImage"/>
    <dc:title/>
   </cc:Work>
  </rdf:RDF>
 </metadata>
 <path stroke="currentColor" fill="currentColor" d="m5.1641 0.32617v0.044922c0 0.17372-0.14195 0.31836-0.31641 0.31836-0.10683 0-0.20647-0.055402-0.26562-0.14453-0.012864-0.019434-0.06331-0.019432-0.076172 0-0.10473 0.15815-0.33427 0.18897-0.47656 0.058594-0.012828-0.011832-0.032942-0.014191-0.048828-0.007813-0.017149 0.006869-0.026183 0.021988-0.027344 0.039062-0.011264 0.16556-0.15053 0.29688-0.31641 0.29688-0.036077 0-0.071814-0.008556-0.10742-0.021484-0.015076-0.005599-0.031229-0.002915-0.042969 0.005859-0.011605 0.008638-0.018495 0.026304-0.017578 0.041016a0.075503 0.075503 0 0 1 0 0.003906c0 3e-3 -0.00144-0.006686 0 0.007813a0.075503 0.075503 0 0 1 0.00195 0.007813c0 0.17417-0.14291 0.31641-0.31445 0.31641a0.075503 0.075503 0 0 1-0.011719-0.00195c0.00489 7.101e-4 -0.00751 3.539e-4 -0.00977 0h-0.00195c-0.013774-1.893e-4 -0.030158 0.00581-0.039063 0.017578-0.010057 0.013293-0.013188 0.028059-0.00781 0.042969 0.013093 0.035997 0.021484 0.071709 0.021484 0.10742 0 0.13194-0.084169 0.25093-0.20898 0.29688-0.014575 0.00537-0.024106 0.018906-0.027344 0.035156-0.00337 0.016975 0.00122 0.033229 0.011719 0.042969 0.064101 0.059335 0.10547 0.14113 0.10547 0.23047 0 0.10201-0.050634 0.19605-0.13281 0.25586-0.013328 0.0097-0.019021 0.024141-0.017578 0.041016 0.00145 0.016983 0.0106 0.030793 0.023437 0.037109 0.054515 0.026826 0.10223 0.065087 0.14062 0.10938a0.075503 0.075503 0 0 1-0.064449 0.12304c-0.042614-0.0041325-0.08314-0.0058594-0.12305-0.0058594h-0.50781c-0.025918 0-0.044922 0.018894-0.044922 0.044922 0 0.026021 0.018997 0.044922 0.044922 0.044922 0.17445 0 0.31836 0.14391 0.31836 0.31836s-0.14464 0.31641-0.31836 0.31641c-0.025917 0-0.044922 0.018896-0.044922 0.044922 0 0.026021 0.018997 0.044922 0.044922 0.044922 0.30788 0 0.56055 0.25267 0.56055 0.56055 0 0.026036 0.018991 0.044922 0.044922 0.044922 0.30788 0 0.55859 0.25303 0.55859 0.56055 0 0.026037 0.01899 0.044922 0.044922 0.044922 0.025917 0 0.044922-0.018896 0.044922-0.044922 0-0.29016 0.22467-0.52773 0.50781-0.55469a0.075503 0.075503 0 0 1 0.0625 0.021484l0.11523 0.11719h-0.00195c0.12375 0.12375 0.19531 0.28918 0.19531 0.46484 0 0.18646-0.080098 0.36553-0.21875 0.49023l-0.41993 0.37695a0.075503 0.075503 0 0 1-0.11328-0.015625l-0.089844-0.13672-0.078125 0.050781 0.11133 0.16797a0.075503 0.075503 0 0 1-0.011719 0.097656l-0.035156 0.03125c-0.074948 0.067413-0.1385 0.14359-0.19141 0.22852a0.075503 0.075503 0 0 1-0.087891 0.033203l-0.18555-0.0625-0.029297 0.087891 0.15625 0.050781a0.075503 0.075503 0 0 1 0.046875 0.097656c-0.041871 0.1165-0.064453 0.23742-0.064453 0.36133v0.027344a0.075503 0.075503 0 0 1-0.076172 0.076172h-0.16406v0.089844h0.18164a0.075503 0.075503 0 0 1 0.074219 0.064453c0.081711 0.51151 0.52369 0.90234 1.0586 0.90234 0.59274 0 1.0723-0.47953 1.0723-1.0723 0-0.28586-0.10857-0.55388-0.31055-0.75586l-0.064453-0.064453c-0.00778-0.00782-0.020651-0.011719-0.033203-0.011719-0.22583 0-0.40625 0.18201-0.40625 0.4082 0 0.012761 0.0038 0.025323 0.011719 0.033203l0.11328 0.11328c0.073316 0.073316 0.11719 0.17294 0.11719 0.27734 0 0.27451-0.22592 0.49805-0.5 0.49805-0.27408 0-0.5-0.22354-0.5-0.49805v-0.066406c0-0.13825 0.058464-0.27083 0.16016-0.36523l0.90625-0.83984c0.39878-0.37026 0.62695-0.89707 0.62695-1.4414 0-0.6263-0.30206-1.2214-0.80859-1.5898l-0.4082-0.29688c-0.071656-0.05198-0.11328-0.13482-0.11328-0.22266 0-0.13437 0.09828-0.2466 0.22656-0.26953a0.075503 0.075503 0 0 1 0.083984 0.048828c0.029964 0.081345 0.07632 0.1564 0.13867 0.21875l0.80273 0.80273c0.010005 0.010056 0.024026 0.013672 0.033203 0.013672 0.012157 0 0.024549-0.00307 0.033203-0.011719l0.24219-0.24219c0.015736-0.015737 0.017249-0.040967 0.00586-0.058594l-0.11328-0.1582a0.075503 0.075503 0 0 1 0-0.00195c-0.30203-0.42296-0.46798-0.91821-0.48242-1.4356a0.075503 0.075503 0 0 1 0.019531-0.050781c0.061943-0.07227 0.097656-0.16224 0.097656-0.26367v-0.044922zm-0.62305 0.3457a0.075503 0.075503 0 0 1 0.050781 0.017578c0.071673 0.057639 0.16193 0.089844 0.25586 0.089844 0.03457 0 0.068105-0.006466 0.10742-0.017578a0.075503 0.075503 0 0 1 0.097656 0.066406c0.00674 0.084955 0.018132 0.17105 0.033203 0.25586a0.075503 0.075503 0 0 1-0.074219 0.089844h-0.087891v0.087891h0.14258a0.075503 0.075503 0 0 1 0.072266 0.056641c0.082914 0.30493 0.21709 0.59543 0.4043 0.85742a0.075503 0.075503 0 0 1 0.00195 0l0.052738 0.074218a0.075503 0.075503 0 0 1-0.00977 0.095703l-0.083984 0.083984a0.075503 0.075503 0 0 1-0.10547 0l-0.71875-0.71875c-0.0964-0.096543-0.15039-0.22533-0.15039-0.36133 0-0.078537 0.016995-0.15689 0.052734-0.22852l0.029297-0.056641-0.082031-0.041016-0.027344 0.054687c-0.040918 0.081835-0.062071 0.17463-0.0625 0.26758a0.075503 0.075503 0 0 1-0.0625 0.074219c-0.17077 0.030887-0.30078 0.1794-0.30078 0.35938 0 0.11643 0.056304 0.22839 0.15039 0.29688l0.060547 0.044922a0.075503 0.075503 0 0 1 0.03125 0.058594c0.00623 0.33886 0.11107 0.66304 0.30859 0.93945 0.19213 0.2689 0.29688 0.58729 0.29688 0.91797v0.10547c0 0.21972 0.079738 0.42506 0.22656 0.58594a0.075503 0.075503 0 0 1 0.00977 0.087891c-0.093443 0.16433-0.21261 0.31449-0.35352 0.44531l-0.90625 0.8418c-0.11982 0.11124-0.1875 0.26852-0.1875 0.43164v0.066406c0 0.32573 0.26373 0.58789 0.58984 0.58789 0.32611 0 0.58789-0.26189 0.58789-0.58789 0-0.1274-0.04947-0.25465-0.13867-0.34375l-0.074219-0.074218a0.075503 0.075503 0 0 1-0.021484-0.066406c0.024302-0.12722 0.1249-0.22765 0.25195-0.25195a0.075503 0.075503 0 0 1 0.066406 0.021484l0.023437 0.023437c0.18438 0.18425 0.28711 0.43116 0.28711 0.69141 0 0.54116-0.44126 0.98242-0.98242 0.98242-0.54116 0-0.98437-0.44107-0.98438-0.98242v-0.087891c0-0.27835 0.11944-0.54443 0.32617-0.73047l0.63672-0.57226c0.15755-0.14184 0.24805-0.34472 0.24805-0.55664 0-0.17987-0.062125-0.34882-0.17773-0.48438a0.075503 0.075503 0 0 1 0.056641-0.125h0.12109v-0.089844h-0.4082c-0.22647 0-0.42641 0.11369-0.54297 0.28906a0.075503 0.075503 0 0 1-0.125 0c-0.075445-0.11332-0.18633-0.19954-0.31641-0.24805a0.075503 0.075503 0 0 1-0.019531-0.12891c0.12645-0.10208 0.28078-0.15637 0.44336-0.17188v-0.089844c-0.19312 0.016275-0.37624 0.080547-0.52344 0.20703a0.075503 0.075503 0 0 1-0.11914-0.03125c-0.049384-0.13784-0.14409-0.25306-0.26562-0.33008a0.075503 0.075503 0 0 1 0.00977-0.13281c0.16766-0.074364 0.34982-0.1132 0.53516-0.11719v-0.087891c-0.13402 0.00252-0.26674 0.01755-0.39258 0.054688a0.075503 0.075503 0 0 1-0.095703-0.082031c0.00361-0.026371 0.00586-0.042139 0.00586-0.052734 0-0.073751-0.019441-0.14437-0.054688-0.20508a0.075503 0.075503 0 0 1 0.064453-0.11328h0.089844c0.35501 0 0.68632 0.16022 0.9082 0.4375l0.074214 0.091796 0.070312-0.056641-0.072266-0.09375c-0.15086-0.18843-0.34923-0.32403-0.57031-0.40039a0.075503 0.075503 0 0 1-0.046875-0.050781c-0.028028-0.096133-0.081981-0.18179-0.1582-0.24805a0.075503 0.075503 0 0 1-0.013672-0.099609c0.045812-0.066691 0.070312-0.1474 0.070312-0.23047 0-0.067906-0.016666-0.1345-0.048828-0.19336a0.075503 0.075503 0 0 1 0.019531-0.095703c0.094029-0.076161 0.15039-0.19225 0.15039-0.31641 0-0.00629 7.29e-5 -0.00866 0-0.011719a0.075503 0.075503 0 0 1 0.056641-0.074219c0.14282-0.036773 0.25798-0.15348 0.29492-0.29688a0.075503 0.075503 0 0 1 0.074219-0.056641c0.16286 0.00288 0.31117-0.090738 0.37891-0.23047a0.075503 0.075503 0 0 1 0.095703-0.037109c0.13016 0.049936 0.29347 0.023394 0.40039-0.0625a0.075503 0.075503 0 0 1 0.042969-0.017578zm-0.054687 1.623a0.075503 0.075503 0 0 1 0.058594 0.013672l0.089844 0.064453c0.14588 0.10614 0.27035 0.23295 0.37695 0.37109a0.075503 0.075503 0 0 1-0.060547 0.12305h-0.32227a0.075503 0.075503 0 0 1-0.068359-0.042969c-0.066324-0.13987-0.11221-0.28918-0.13477-0.44336a0.075503 0.075503 0 0 1 0.060547-0.085937zm0.2793 0.66211a0.075503 0.075503 0 0 1 0.00391 0h0.3418a0.075503 0.075503 0 0 1 0.066406 0.041016c0.043794 0.0807 0.081362 0.16248 0.11328 0.25a0.075503 0.075503 0 0 1-0.070316 0.10156h-0.30859a0.075503 0.075503 0 0 1-0.068359-0.042969c-0.038899-0.079869-0.084396-0.15616-0.13672-0.23047a0.075503 0.075503 0 0 1 0.058594-0.11914zm0.24219 0.48242a0.075503 0.075503 0 0 1 0.00195 0h0.2793a0.075503 0.075503 0 0 1 0.074219 0.060547c0.018178 0.085204 0.030943 0.1722 0.037109 0.25977a0.075503 0.075503 0 0 1-0.078125 0.082031l-0.25781-0.0058591a0.075503 0.075503 0 0 1-0.072266-0.064453c-0.012675-0.079626-0.030979-0.1567-0.054688-0.23242a0.075503 0.075503 0 0 1 0.070312-0.099609zm0.076172 0.48633a0.075503 0.075503 0 0 1 0.00586 0l0.23633 0.00586a0.075503 0.075503 0 0 1 0.074219 0.082031c-0.012624 0.18955-0.055619 0.37215-0.12305 0.54687a0.075503 0.075503 0 0 1-0.13281 0.015625c-0.085545-0.12711-0.13281-0.27701-0.13281-0.43359v-0.10547c0-0.012255 1.674e-4 -0.023684 0-0.033203a0.075503 0.075503 0 0 1 0.072266-0.078125z" stroke-width=".12097"/>
</svg>
