<?xml version="1.0" encoding="UTF-8"?>
<svg width="60" height="60" enable-background="new 0 0 506.495 506.495" version="1.1" viewBox="0 0 59.355 59.355" xmlns="http://www.w3.org/2000/svg" xmlns:cc="http://creativecommons.org/ns#" xmlns:dc="http://purl.org/dc/elements/1.1/" xmlns:rdf="http://www.w3.org/1999/02/22-rdf-syntax-ns#">
 <metadata>
  <rdf:RDF>
   <cc:Work rdf:about="">
    <dc:format>image/svg+xml</dc:format>
    <dc:type rdf:resource="http://purl.org/dc/dcmitype/StillImage"/>
    <dc:title/>
   </cc:Work>
  </rdf:RDF>
 </metadata>
 <g transform="matrix(.11719 0 0 .11719 1.9785 .00014148)" stroke="currentColor" fill="currentColor">
  <path d="m488.8 264.69c-2.609-28.972-14.225-56.893-33.592-80.745-6.614-8.146-15.578-12.12-27.197-12.031-2.136-11.034-4.556-19.208-5.775-23.457-0.955-3.316-3.507-5.883-6.823-6.838-0.842-0.244-1.677-0.504-2.509-0.771l2.506-9.772c8.903-5.014 17.053-11.196 24.274-18.418 22.177-22.177 34.148-52.974 32.847-84.493-0.215-5.199-4.38-9.364-9.578-9.579-31.529-1.298-62.317 10.67-84.494 32.848-7.222 7.222-13.403 15.372-18.417 24.273l-9.755 2.502c-0.263-0.822-0.521-1.646-0.761-2.477-0.955-3.316-3.522-5.869-6.838-6.823-4.447-1.276-13.196-3.867-25.02-6.071 0.386-12.219-3.568-21.586-11.998-28.431-23.856-19.37-51.777-30.986-80.748-33.595-54.18-4.882-108.56 12.49-149.2 47.656-5.721 4.951-7.943 12.836-5.66 20.09 2.274 7.222 8.582 12.39 16.07 13.167 22.12 2.294 61.665 4.047 92.369 5.256-12.495 7.836-24.913 17.678-36.938 30.001-49.363 50.584-68.375 105.69-75.742 144.53-0.019-6e-3 -0.037-0.014-0.057-0.02-7.106-2.344-14.687-1.719-21.346 1.759-27.267 14.242-47.572 35.234-60.353 62.393-0.986 2.096-1.214 4.47-0.645 6.715 3.335 13.153 11.988 24.26 26.104 32.357 20.59 11.812 38.215 3.411 45.346-1.516 3.661-2.529 7.091-5.466 10.29-8.781 3.688 19.808 9.421 37.667 15.273 50.997 0.877 1.997 2.565 4.096 5.289 5.289 12.757 5.588 29.651 11.081 48.432 14.778-2.888 2.904-5.486 5.984-7.746 9.256-4.926 7.13-13.327 24.756-1.516 45.346 8.097 14.115 19.205 22.769 32.357 26.104 2.246 0.569 4.619 0.341 6.715-0.645 27.158-12.78 48.15-33.086 62.393-60.353 3.208-6.143 3.982-13.068 2.245-19.682 17.769-3.301 74.25-30.239 96.973-40.25 0 0 25.133-14.928 48.584-35.683 11.605-11.325 21.016-22.998 28.618-34.755 1.203 30.117 2.906 67.418 5.109 88.656 0.777 7.488 5.945 13.796 13.167 16.07 7.254 2.283 15.14 0.062 20.09-5.66 35.166-40.639 52.539-95.018 47.657-149.2z"/>
 </g>
</svg>
