<?xml version="1.0" encoding="UTF-8"?>
<svg width="60" height="60" enable-background="new 0 0 506.495 506.495" version="1.1" viewBox="0 0 59.355 59.355" xmlns="http://www.w3.org/2000/svg" xmlns:cc="http://creativecommons.org/ns#" xmlns:dc="http://purl.org/dc/elements/1.1/" xmlns:rdf="http://www.w3.org/1999/02/22-rdf-syntax-ns#">
 <metadata>
  <rdf:RDF>
   <cc:Work rdf:about="">
    <dc:format>image/svg+xml</dc:format>
    <dc:type rdf:resource="http://purl.org/dc/dcmitype/StillImage"/>
    <dc:title/>
   </cc:Work>
  </rdf:RDF>
 </metadata>
 <g transform="matrix(.11719 0 0 .11719 5.3829e-5 .00014152)" stroke="currentColor" fill="currentColor">
  <path d="m408.94 209.78c-0.499-10.39-1.743-20.834-3.699-31.042-0.595-3.104-2.621-5.745-5.467-7.121-27.572-13.338-50.15-35.872-63.575-63.451-1.381-2.836-4.019-4.855-7.118-5.446-9.977-1.903-25.41-3.823-37.4-3.823-37.782 0-74.813 16.223-104.27 45.679-21.55 21.55-69.422 80.466-69.422 167.96 0 42.323 35.013 76.859 78.05 76.986h0.037c61.289 0 122.66-25.491 168.38-69.937 30.217-29.375 46.432-69.396 44.488-109.8zm-22.484-22.484c0.825 4.955 1.446 9.959 1.899 14.97l-47.205 9.912-45.767-45.767 5.216-47.179c6.816 0.463 14.041 1.35 19.959 2.3 14.79 27.973 37.922 51.059 65.898 65.764zm-87.122 155.5-11.312-67.904 32.832 0.538 23.605 35.469c-13.817 12.497-29.012 23.195-45.125 31.897zm-32.485-73.295 5.588 33.543-50.651 9.505-26.336-26.336 9.505-50.651 33.543 5.588zm-55.642-119.64c20.691-17.41 44.643-27.921 69.244-30.389l-4.715 42.649-30.325 7.787zm14.491 182.3 50.026-9.387 4.843 29.073c-22.244 9.508-45.783 15.368-69.527 17.112zm92.979-76.773-38.281-0.627-27.044-27.044 0.465-39.318 28.061-7.206 44.848 44.847zm-122.44-91.119 37.602 22.039-0.399 33.721-68.729-11.449c8.659-16.091 19.252-31.062 31.526-44.311zm-40.535 63.086 29.519 4.917-9.395 50.065-37.271 15.118c1.765-23.964 7.68-47.801 17.147-70.1zm-17.312 91.75 43.873-17.796 24.454 24.454-17.269 43.353c-26.711-3.07-47.967-23.895-51.058-50.011zm220.43-22.732-21.701-32.607 8.818-32.155 42.981-9.025c-1.442 26.704-12.029 52.661-30.098 73.787zm146.86-31.685c-2.609-28.972-14.225-56.893-33.592-80.745-6.614-8.146-15.578-12.12-27.197-12.031-2.136-11.034-4.556-19.208-5.775-23.457-0.955-3.316-3.507-5.883-6.823-6.838-0.842-0.244-1.677-0.504-2.509-0.771l2.506-9.772c8.903-5.014 17.053-11.196 24.274-18.418 22.177-22.177 34.148-52.974 32.847-84.493-0.215-5.199-4.38-9.364-9.578-9.579-31.529-1.298-62.317 10.67-84.494 32.848-7.222 7.222-13.403 15.372-18.417 24.273l-9.755 2.502c-0.263-0.822-0.521-1.646-0.761-2.477-0.955-3.316-3.522-5.869-6.838-6.823-4.447-1.276-13.196-3.867-25.02-6.071 0.386-12.219-3.568-21.586-11.998-28.431-23.856-19.37-51.777-30.986-80.748-33.595-54.18-4.882-108.56 12.49-149.2 47.656-5.721 4.951-7.943 12.836-5.66 20.09 2.274 7.222 8.582 12.39 16.07 13.167 22.12 2.294 61.665 4.047 92.369 5.256-12.495 7.836-24.913 17.678-36.938 30.001-49.363 50.584-68.375 105.69-75.742 144.53-0.019-6e-3 -0.037-0.014-0.057-0.02-7.106-2.344-14.687-1.719-21.346 1.759-27.267 14.242-47.572 35.234-60.353 62.393-0.986 2.096-1.214 4.47-0.645 6.715 3.335 13.153 11.988 24.26 26.104 32.357 20.59 11.812 38.215 3.411 45.346-1.516 3.661-2.529 7.091-5.466 10.29-8.781 3.688 19.808 9.421 37.667 15.273 50.997 0.877 1.997 2.565 4.096 5.289 5.289 12.757 5.588 29.651 11.081 48.432 14.778-2.888 2.904-5.486 5.984-7.746 9.256-4.926 7.13-13.327 24.756-1.516 45.346 8.097 14.115 19.205 22.769 32.357 26.104 2.246 0.569 4.619 0.341 6.715-0.645 27.158-12.78 48.15-33.086 62.393-60.353 3.208-6.143 3.982-13.068 2.245-19.682 17.769-3.301 39.023-9.034 61.746-19.045 11.969-5.256 3.787-23.889-8.182-18.634-32.277 14.442-66.802 22.222-101.1 22.218-29.19 0-57.382-5.452-83.778-16.193-10.741-26.396-16.193-54.589-16.193-83.778-7e-3 -64.41 27.429-129.6 74.883-179.22 64.34-67.281 141.26-52.955 176.06-44.145 2.871 8.372 10.578 27.224 27.952 44.598 17.373 17.373 36.07 24.925 44.442 27.796 8.81 34.804 23.136 111.72-44.145 176.06-1.894 1.811-3.81 3.593-5.748 5.345-9.822 8.888 3.656 23.782 13.478 14.894 2.054-1.894 4.103-3.837 6.144-5.828 11.605-11.325 21.016-22.998 28.618-34.755 1.203 30.117 2.906 67.418 5.109 88.656 0.777 7.488 5.945 13.796 13.167 16.07 7.254 2.283 15.14 0.062 20.09-5.66 35.166-40.639 52.539-95.018 47.657-149.2zm-307.74 165.36c4.461-0.044 14.079-0.103 27.282-1.545 1.236 1.825 1.906 4.381 0.287 7.431-11.876 22.376-28.014 38.785-49.713 49.819-6.5-2.584-12.032-7.813-16.834-15.889-4.459-7.499-4.161-16.603 0.781-23.755 4.561-6.603 10.861-12.113 19.152-16.752 6.291 0.503 12.662 0.755 19.045 0.691zm-137.56-83.299c-7.152 4.941-16.256 5.24-23.755 0.781-8.076-4.803-13.304-10.334-15.889-16.834 11.035-21.699 27.443-37.837 49.819-49.713 4.05-2.15 7.229-0.266 8.98 1.624-1.464 13.307-1.52 22.992-1.564 27.475-0.05 5.081 0.101 10.154 0.415 15.187-4.891 9.452-10.798 16.501-18.006 21.48zm174.01-278.19c-29.187-1.111-100.51-3.94-126.92-6.483 36.359-30.612 84.522-45.666 132.54-41.34 24.996 2.25 49.179 12.348 69.933 29.199 1.548 1.257 4.309 3.505 4.62 10.097-22.379-2.12-50.552-1.314-80.169 8.527zm140.99 28.193 10.759-2.759c2.777-0.712 5.115-2.583 6.421-5.136 4.406-8.624 10.1-16.456 16.922-23.278 16.221-16.221 37.197-25.593 59.865-26.925-1.332 22.668-10.704 43.645-26.925 59.866-6.821 6.822-14.653 12.516-23.278 16.922-2.554 1.305-4.425 3.643-5.137 6.421l-2.761 10.768c-7.426-4.288-14.247-9.536-20.269-15.58-6.052-6.03-11.306-12.861-15.597-20.299zm69.042 302.27c-2.399-24.913-5.051-89.777-6.278-121.56 11.317-31.648 12.097-61.872 9.711-85.426 5.527 0.605 7.543 3.079 8.707 4.512 16.852 20.754 26.949 44.937 29.199 69.933 4.327 48.014-10.726 96.177-41.339 132.54zm-91.969-23.757c0 5.521-4.475 9.996-9.996 9.996s-9.996-4.475-9.996-9.996 4.475-9.996 9.996-9.996 9.996 4.475 9.996 9.996z"/>
 </g>
</svg>
