<?xml version="1.0" encoding="UTF-8"?>
<svg width="64" height="64" version="1.1" viewBox="0 0 16.933 16.933" xmlns="http://www.w3.org/2000/svg" xmlns:cc="http://creativecommons.org/ns#" xmlns:dc="http://purl.org/dc/elements/1.1/" xmlns:rdf="http://www.w3.org/1999/02/22-rdf-syntax-ns#">
 <metadata>
  <rdf:RDF>
   <cc:Work rdf:about="">
    <dc:format>image/svg+xml</dc:format>
    <dc:type rdf:resource="http://purl.org/dc/dcmitype/StillImage"/>
    <dc:title/>
   </cc:Work>
  </rdf:RDF>
 </metadata>
 <g fill="none" stroke="currentColor">
  <g transform="matrix(.58167 .33553 -.33583 .58116 38.753 -57.216)">
   <path d="m10.175 98.09v13.774s-0.25371 3.6933-1.6824 4.8837" stroke-width=".50445"/>
   <path d="m10.175 111.86-7.4791-5.332" stroke-width=".50445"/>
   <path d="m5.0653 113.41 0.9382-1.8436-4.1833-0.69487 1.9303-1.5282-1.0552-2.8094 4.55 1.508-1.7548-5.1456 2.0636 0.61609-0.43653-2.4413h1.6072l1.4496-2.9791 1.4496 2.9791h1.6072l-0.43653 2.4413 2.0636-0.61609-1.7548 5.1456 4.55-1.508-1.0552 2.8094 1.9303 1.5282-4.1833 0.69487 0.9382 1.8436-5.1092-1.544z" stroke-width=".6726"/>
   <g stroke-width=".50445">
    <path d="m10.175 111.86 7.4791-5.332"/>
    <path d="m10.175 108.26 4.6839-5.3677"/>
    <path d="m10.175 108.26-4.6839-5.3677"/>
   </g>
  </g>
  <circle cx="8.4667" cy="8.4667" r="8.0667" stroke-linecap="round" stroke-linejoin="round" stroke-width=".8" style="paint-order:markers fill stroke"/>
 </g>
</svg>
