<?xml version="1.0" encoding="UTF-8"?>
<svg width="64" height="64" version="1.1" viewBox="0 0 16.933 16.933" xmlns="http://www.w3.org/2000/svg" xmlns:cc="http://creativecommons.org/ns#" xmlns:dc="http://purl.org/dc/elements/1.1/" xmlns:rdf="http://www.w3.org/1999/02/22-rdf-syntax-ns#">
 <metadata>
  <rdf:RDF>
   <cc:Work rdf:about="">
    <dc:format>image/svg+xml</dc:format>
    <dc:type rdf:resource="http://purl.org/dc/dcmitype/StillImage"/>
    <dc:title/>
   </cc:Work>
  </rdf:RDF>
 </metadata>
 <g fill="none" stroke="currentColor">
  <g transform="matrix(.56444 0 0 .56444 -37.949 .95401)">
   <path d="m81.435 19.389c-1.3962 2.3507-3.7724 3.3946-5.3326 2.261-1.5602-1.1336-1.3017-3.7163 0.50231-5.7707 0.45699-0.52041 1.0603-0.97133 1.7065-1.3547-0.74805 0.06985-1.5012 0.05966-2.1768-0.09275-2.6669-0.60151-4.394-2.539-3.798-4.3733 0.59595-1.8343 3.1319-2.3865 5.643-1.3055 0.63612 0.27384 1.2514 0.70834 1.8156 1.2045-0.29753-0.68993-0.5206-1.4094-0.58446-2.099-0.25209-2.7225 1.0568-4.9638 2.9853-4.9638 1.9285 0 3.2374 2.2414 2.9853 4.9638-0.06386 0.68965-0.28693 1.4091-0.58446 2.099 0.56417-0.49619 1.1794-0.93069 1.8155-1.2045 2.5111-1.0811 5.0471-0.52876 5.643 1.3055 0.59594 1.8343-1.1311 3.7718-3.798 4.3733-0.67558 0.15238-1.4287 0.16253-2.1768 0.09275 0.64621 0.38329 1.2495 0.83421 1.7065 1.3546 1.8041 2.0543 2.0625 4.637 0.50228 5.7707-1.5602 1.1336-3.9364 0.08971-5.3326-2.261-0.35368-0.59547-0.59606-1.3087-0.76089-2.0417-0.16471 0.7331-0.40713 1.4463-0.76084 2.0417z" stroke-linejoin="round" stroke-width=".8"/>
   <ellipse cx="82.233" cy="13.31" rx="2.2057" ry="2.2058" stroke-linecap="round" stroke-width=".6" style="paint-order:markers fill stroke"/>
  </g>
  <circle cx="8.4667" cy="8.4667" r="8.0667" stroke-linecap="round" stroke-linejoin="round" stroke-width=".8" style="paint-order:markers fill stroke"/>
 </g>
</svg>
