<?xml version="1.0" encoding="UTF-8"?>
<svg width="64" height="64" version="1.1" viewBox="0 0 16.933 16.933" xmlns="http://www.w3.org/2000/svg" xmlns:cc="http://creativecommons.org/ns#" xmlns:dc="http://purl.org/dc/elements/1.1/" xmlns:rdf="http://www.w3.org/1999/02/22-rdf-syntax-ns#">
 <metadata>
  <rdf:RDF>
   <cc:Work rdf:about="">
    <dc:format>image/svg+xml</dc:format>
    <dc:type rdf:resource="http://purl.org/dc/dcmitype/StillImage"/>
    <dc:title/>
   </cc:Work>
  </rdf:RDF>
 </metadata>
 <g fill="none" stroke="currentColor">
  <g transform="matrix(.56444 0 0 .56444 -39.582 -51.529)">
   <circle cx="85.125" cy="106.29" r="4.35" stroke-width=".6" style="paint-order:markers fill stroke"/>
   <path d="m92.143 113.31-3.5391-0.99267-0.90988 3.5613-2.5686-2.6292-2.5686 2.6292-0.90988-3.5613-3.5391 0.99267 0.99267-3.5391-3.5613-0.90989 2.6292-2.5686-2.6292-2.5686 3.5613-0.90988-0.99267-3.5391 3.5391 0.99267 0.90988-3.5613 2.5686 2.6292 2.5686-2.6292 0.90988 3.5613 3.5391-0.99267-0.99267 3.5391 3.5613 0.90988-2.6292 2.5686 2.6292 2.5686-3.5613 0.90989z" stroke-width=".8" style="paint-order:markers fill stroke"/>
  </g>
  <circle cx="8.4667" cy="8.4667" r="8.0667" stroke-linecap="round" stroke-linejoin="round" stroke-width=".8" style="paint-order:markers fill stroke"/>
 </g>
</svg>
