<?xml version="1.0" encoding="UTF-8"?>
<svg width="64" height="64" version="1.1" viewBox="0 0 16.933 16.933" xmlns="http://www.w3.org/2000/svg" xmlns:cc="http://creativecommons.org/ns#" xmlns:dc="http://purl.org/dc/elements/1.1/" xmlns:rdf="http://www.w3.org/1999/02/22-rdf-syntax-ns#">
 <metadata>
  <rdf:RDF>
   <cc:Work rdf:about="">
    <dc:format>image/svg+xml</dc:format>
    <dc:type rdf:resource="http://purl.org/dc/dcmitype/StillImage"/>
    <dc:title/>
   </cc:Work>
  </rdf:RDF>
 </metadata>
 <g fill="none" stroke="currentColor" stroke-linecap="round">
  <g transform="matrix(.48882 -.28222 .28222 .48882 -50.922 -26.523)">
   <g transform="rotate(30 51.458 138.64)">
    <g stroke-width=".8">
     <path d="m42.792 96.317v19.95"/>
     <path d="m51.43 101.3-17.277 9.975"/>
     <path d="m51.43 111.28-17.277-9.975"/>
    </g>
    <g stroke-width=".8">
     <g transform="translate(.07849 .33159)">
      <path d="m45.563 97.523-2.7717 1.6002-2.7717-1.6002"/>
      <path d="m39.863 114.4 2.7717-1.6002 2.7717 1.6002"/>
     </g>
     <g transform="rotate(60 42.465 106.19)">
      <path d="m45.563 97.523-2.7717 1.6002-2.7717-1.6002"/>
      <path d="m39.863 114.4 2.7717-1.6002 2.7717 1.6002"/>
     </g>
     <g transform="rotate(120 42.657 106.15)">
      <path d="m45.563 97.523-2.7717 1.6002-2.7717-1.6002"/>
      <path d="m39.863 114.4 2.7717-1.6002 2.7717 1.6002"/>
     </g>
    </g>
   </g>
   <g stroke-linejoin="round" stroke-width=".6">
    <path d="m60.125 106.29 1.3158-2.1972-1.2985-1.3622-1.2985 1.3622z"/>
    <path d="m60.149 106.27 2.5607 0.041 0.5304-1.8056-1.8289-0.44347z"/>
    <path d="m60.173 106.3 1.2449 2.2382 1.8289-0.44348-0.5304-1.8056z"/>
    <path d="m60.142 106.34-1.3159 2.1972 1.2985 1.3622 1.2985-1.3622z"/>
    <path d="m60.089 106.33-2.5608-0.041-0.53041 1.8056 1.8289 0.44347z"/>
    <path d="m60.097 106.32-1.2449-2.2382-1.829 0.44348 0.5304 1.8056z"/>
   </g>
  </g>
  <circle cx="8.4667" cy="8.4667" r="8.0667" stroke-linejoin="round" stroke-width=".8" style="paint-order:markers fill stroke"/>
 </g>
</svg>
