<?xml version="1.0" encoding="UTF-8"?>
<svg width="64" height="50" version="1.1" viewBox="0 0 16.933 13.229" xmlns="http://www.w3.org/2000/svg" xmlns:cc="http://creativecommons.org/ns#" xmlns:dc="http://purl.org/dc/elements/1.1/" xmlns:rdf="http://www.w3.org/1999/02/22-rdf-syntax-ns#">
 <metadata>
  <rdf:RDF>
   <cc:Work rdf:about="">
    <dc:format>image/svg+xml</dc:format>
    <dc:type rdf:resource="http://purl.org/dc/dcmitype/StillImage"/>
    <dc:title/>
   </cc:Work>
  </rdf:RDF>
 </metadata>
 <g transform="matrix(.78049 0 0 .78049 -19.295 -99.116)" fill="none" stroke="currentColor">
  <path d="m29.214 140.96c1.3213 0.98736 3.28-3e-3 4.8421 0.44977 1.4738 0.42753 2.604 2.193 4.1301 2.099 1.6477-0.10156 3.1443-1.4436 4.1776-2.7986 0.92757-1.2164 1.7367-2.8549 1.5191-4.3978-0.17426-1.2358-1.5918-1.8884-2.1363-2.9985-0.57166-1.1656-0.20199-2.8838-1.1393-3.7481-0.9433-0.86981-2.4842-1.0042-3.7028-0.69966-1.6418 0.41022-2.4644 2.3843-3.9589 3.1782-1.4132 0.75073-3.41 0.33432-4.5861 1.4195-0.75157 0.69352-1.1519 1.8184-1.1393 2.8486 0.02073 1.6997 0.67709 3.6637 1.9938 4.6477z" stroke-width=".8"/>
  <g stroke-width=".6">
   <path d="m29.356 129.42c0.2696 0.82719 1.5925 1.0972 2.3736 0.79959 0.77604-0.29561 1.6559-1.4011 1.3292-2.1989-0.33173-0.81004-1.6937-0.83544-2.4686-0.49976-0.67378 0.29188-1.4707 1.1736-1.2343 1.8991z"/>
   <path d="m36.944 140.07c0.40448 0.65384 1.6113 0.46983 2.3026 0.13348 0.71868-0.34964 1.6367-1.2162 1.3682-1.9689-0.29926-0.83905-1.7651-1.1167-2.5696-0.73418-0.84161 0.40013-1.5915 1.7771-1.1013 2.5696z"/>
   <path d="m36.334 133.77c0.17 0.67391 1.135 1.2507 1.8007 1.0512 0.66216-0.1985 1.1317-1.2001 0.92055-1.8583-0.19394-0.60469-1.0816-1.0777-1.6808-0.89682-0.59305 0.17903-1.2033 1.0587-1.0405 1.704z"/>
  </g>
  <path d="m30.242 137.69c0.32895 0.84767 1.5521 1.5829 2.4092 1.2793 0.78279-0.27732 1.2419-1.507 0.97407-2.2931-0.31056-0.9113-1.6159-1.7531-2.5176-1.4156-0.80512 0.30133-1.1767 1.6279-0.86565 2.4294z" stroke-width=".6"/>
 </g>
</svg>
