<svg id="Layer_1" enable-background="new 0 0 128 128" height="512" viewBox="0 0 128 128" width="512" xmlns="http://www.w3.org/2000/svg"><g><path d="m72.88 5.511c-1.235.157-3.25.699-5.75 1.924-.049.024-.082.066-.128.094-2.126 1.096-4.175 2.334-6.133 3.708l-.564.386c-7.352 5.036-13.7 9.386-33.287 13.066-22.268 4.185-22.268 27.111-22.268 39.43 0 10.619 6.324 21 12.591 26.583 1.867 1.663 3.362 4.148 5.092 7.026 3.656 6.08 8.207 13.647 19.5 19.742 12.234 6.6 19.709 3.883 25.165 1.895 1.983-.721 3.7-1.348 5.071-1.239 2.147.306 4.191 1.113 5.966 2.358 2.224 1.308 4.706 2.767 8.011 2.767.532-.001 1.063-.037 1.59-.11 8.345-1.142 10.612-11.629 11.357-15.075 1.377-6.727 5.337-12.647 11.029-16.488 8.526-5.92 13.127-19.165 13.127-28.622.001-5.795-1.561-9.134-3.722-13.756-2.253-4.656-4.154-9.474-5.689-14.413-3.61-11.619-5.795-13.688-8.181-16.558-2.171-2.612-4.335-4.438-5.483-5.348-4.275-3.391-8.228-5.002-9.554-5.511-.001 0-7.387-3.172-17.74-1.859zm29.201 13.917c-4.5 2.909-10.835 3.8-17.008 2.3-7.098-1.728-12.822-6.278-15.007-11.8 2.714-.755 9.291-2.193 17.162.083 8.12 2.347 12.996 7.311 14.853 9.417zm6.046 69.272c-6.428 4.339-10.9 11.026-12.455 18.624-1.678 7.763-4.428 11.8-8.409 12.346-2.921.4-4.976-.809-7.354-2.207-2.23-1.524-4.792-2.494-7.472-2.83-.2-.015-.4-.023-.6-.023-2.049.142-4.058.637-5.938 1.463-5.1 1.857-11.455 4.169-22.306-1.686-10.45-5.64-14.727-12.752-18.163-18.466-1.878-3.122-3.5-5.819-5.765-7.836-5.68-5.058-11.415-14.432-11.415-23.966 0-15.648 1.5-32.624 19.414-35.99 20.31-3.816 27.261-8.578 34.619-13.618l.562-.385c1.312-.9 2.657-1.817 4.087-2.655 2.677 6.442 9.237 11.688 17.315 13.651 2.206.536 4.467.808 6.737.81 4.723.077 9.364-1.245 13.337-3.8 2.139 3 4.14 7.176 6.175 13.7 1.581 5.09 3.54 10.055 5.86 14.853 2.117 4.524 3.394 7.255 3.394 12.272 0 8.688-4.35 20.694-11.623 25.743z"/><path d="m93.9 47.66c1.379-5.677-3.2-11.681-10.21-13.383s-13.832 1.535-15.211 7.212 3.2 11.681 10.211 13.383c1.24.302 2.512.456 3.788.459 1.977.014 3.935-.393 5.743-1.193 2.804-1.149 4.907-3.547 5.679-6.478zm-14.388 3.81c-5.134-1.246-8.56-5.354-7.637-9.155.742-3.055 4.068-5 8.009-5 1.002.002 2.001.123 2.975.361 5.134 1.247 8.56 5.354 7.637 9.157-.53 1.877-1.907 3.399-3.722 4.114-2.296.973-4.85 1.157-7.262.523z"/><path d="m95.771 70.312c-2.401.338-4.623 1.463-6.315 3.2-3.8 3.8-4.357 9.428-1.24 12.545 1.373 1.335 3.225 2.062 5.14 2.018 2.8-.072 5.46-1.242 7.405-3.258 3.8-3.8 4.356-9.428 1.239-12.545-1.653-1.595-3.96-2.321-6.229-1.96zm2.515 12.035c-2.4 2.4-5.874 2.961-7.6 1.24s-1.154-5.2 1.241-7.6c1.142-1.186 2.644-1.961 4.273-2.202.218-.027.437-.04.656-.041.989-.037 1.952.327 2.67 1.008 1.722 1.722 1.155 5.201-1.24 7.595z"/><path d="m41.562 85.722c-3.088-1.541-6.841-.287-8.382 2.801-.22.44-.386.904-.497 1.383-.478 1.897-.273 3.902.58 5.662 1.201 2.748 3.866 4.568 6.862 4.689.895.002 1.78-.194 2.59-.575 3.39-1.6 4.666-6.043 2.845-9.908-.816-1.778-2.231-3.213-3.998-4.052zm-.339 10.794c-1.642.776-3.8-.32-4.794-2.44-.501-1.015-.63-2.173-.363-3.273.19-.855.753-1.58 1.534-1.976.35-.164.731-.247 1.117-.245.479.006.95.115 1.383.32 1.018.495 1.83 1.331 2.294 2.364.999 2.119.473 4.475-1.171 5.25z"/><path d="m59.058 66.137c-4.1 1.933-6.13 5.962-4.617 9.172 1.125 2.132 3.394 3.407 5.8 3.261 1.458-.015 2.895-.35 4.209-.983 4.1-1.933 6.129-5.962 4.616-9.172s-5.908-4.215-10.008-2.278zm3.9 8.284c-2.445 1.151-4.784.606-5.355-.6s.5-3.362 2.943-4.514c.835-.405 1.748-.622 2.676-.634 1.053-.118 2.084.357 2.678 1.234.575 1.21-.494 3.362-2.938 4.514z"/><path d="m39.67 35.374c.118.006.248.008.392.008 3.234 0 12.734-1.389 16.02-5.246.63-.733.546-1.838-.187-2.468s-1.838-.546-2.468.187c-.003.004-.006.007-.009.011-2.284 2.681-10.773 4.125-13.588 4.012-.966-.044-1.786.704-1.83 1.67s.703 1.786 1.67 1.83z"/><path d="m21.226 69.766c-1.874-1.518-2.6-7.151-2.36-9.591.115-.96-.57-1.831-1.53-1.945-.96-.115-1.831.57-1.945 1.53-.003.022-.005.045-.007.067-.24 2.4.177 9.856 3.64 12.659.77.584 1.868.434 2.452-.336.559-.737.449-1.781-.252-2.384z"/><path d="m107.2 50.537c-.901.349-1.349 1.362-1.001 2.264 0 0 0 .001.001.001 1.384 4.086 2.022 8.388 1.882 12.7-.031.966.725 1.774 1.691 1.807h.059c.944-.001 1.717-.75 1.748-1.693.16-4.786-.558-9.561-2.118-14.088-.352-.897-1.364-1.34-2.262-.991z"/><path d="m88.555 94.6c-4.071 4.208-4.918 13.148-4.952 13.527-.087.962.622 1.813 1.584 1.9.054 0 .108.007.161.007.904-.001 1.658-.691 1.741-1.591.2-2.24 1.318-8.655 3.981-11.409.676-.691.665-1.798-.026-2.475s-1.798-.665-2.475.026c-.004.005-.009.01-.014.015z"/><path d="m51.163 55.65c-3.909-.663-11.338 4.082-13.076 9.367-.301.917.196 1.905 1.113 2.209.176.058.36.088.546.088.755 0 1.425-.483 1.663-1.2 1.3-3.946 7.176-7.348 9.174-7.008.951.171 1.861-.462 2.032-1.413s-.462-1.861-1.413-2.032c-.014-.003-.029-.005-.043-.007z"/></g></svg>