<svg height="479pt" viewBox="0 -47 479.96134 479" width="479pt" xmlns="http://www.w3.org/2000/svg"><path d="m239.980469 136.480469c-30.929688 0-56 25.070312-56 56 0 30.929687 25.070312 56 56 56 30.929687 0 56-25.070313 56-56-.035157-30.914063-25.085938-55.964844-56-56zm0 96c-22.089844 0-40-17.910157-40-40 0-22.089844 17.910156-40 40-40 22.089843 0 40 17.910156 40 40-.027344 22.082031-17.917969 39.972656-40 40zm0 0"/><path d="m231.980469 64.480469c0 4.417969 3.582031 8 8 8 45.984375-.1875 87.984375 26.074219 107.945312 67.503906 1.933594 3.976563 6.726563 5.632813 10.703125 3.695313 3.976563-1.933594 5.632813-6.726563 3.695313-10.703126-22.628907-46.949218-70.226563-76.710937-122.34375-76.496093-4.417969 0-8 3.582031-8 8zm0 0"/><path d="m125.101562 135.402344c1.210938.707031 2.59375 1.082031 4 1.078125 2.855469 0 5.5-1.523438 6.925782-4 14.75-25.570313 38.40625-44.808594 66.449218-54.03125 2.75-.867188 4.820313-3.140625 5.421876-5.960938.601562-2.816406-.359376-5.742187-2.511719-7.65625-2.15625-1.910156-5.175781-2.515625-7.902344-1.582031-31.777344 10.453125-58.585937 32.253906-75.304687 61.230469-2.203126 3.824219-.898438 8.707031 2.921874 10.921875zm0 0"/><path d="m327.125 274.976562c-22.585938 24.050782-54.152344 37.632813-87.144531 37.503907-43.636719-.023438-83.832031-23.703125-105-61.863281-2.144531-3.867188-7.015625-5.261719-10.878907-3.121094-3.867187 2.144531-5.265624 7.015625-3.121093 10.878906 23.992187 43.246094 69.546875 70.082031 119 70.105469 37.390625.144531 73.160156-15.246094 98.761719-42.496094 3.039062-3.207031 2.902343-8.273437-.304688-11.3125s-8.273438-2.902344-11.3125.304687zm0 0"/><path d="m345.8125 272.480469c2.652344.003906 5.132812-1.304688 6.625-3.496094 5.445312-7.992187 10.023438-16.539063 13.65625-25.503906 1.09375-2.652344.683594-5.691407-1.078125-7.957031-1.761719-2.269532-4.605469-3.417969-7.445313-3.011719-2.84375.402343-5.25 2.300781-6.308593 4.96875-3.214844 7.90625-7.265625 15.449219-12.082031 22.496093-1.671876 2.453126-1.84375 5.628907-.453126 8.253907 1.390626 2.621093 4.117188 4.257812 7.085938 4.25zm0 0"/><path d="m465.414062 175.28125-102.121093-17.023438c-15.523438-2.839843-29.222657-11.875-37.945313-25.023437-19.382812-28.027344-51.289062-44.753906-85.367187-44.753906s-65.984375 16.726562-85.367188 44.753906c-8.722656 13.152344-22.425781 22.1875-37.953125 25.023437l-102.101562 17.023438c-8.402344 1.40625-14.558594 8.679688-14.558594 17.199219s6.15625 15.792969 14.558594 17.199219l102.117187 17.023437c15.523438 2.839844 29.222657 11.875 37.945313 25.027344 19.382812 28.023437 51.289062 44.75 85.367187 44.75s65.984375-16.726563 85.367188-44.75c8.726562-13.15625 22.425781-22.1875 37.953125-25.027344l102.097656-17.023437c8.398438-1.40625 14.554688-8.679688 14.554688-17.199219s-6.15625-15.792969-14.554688-17.199219zm-2.632812 18.625-102.113281 17.023438c-19.792969 3.519531-37.296875 14.960937-48.464844 31.679687-16.394531 23.71875-43.390625 37.875-72.222656 37.875s-55.828125-14.15625-72.222657-37.875c-11.167968-16.714844-28.667968-28.15625-48.457031-31.679687l-102.121093-17.023438c-.6875-.128906-1.183594-.726562-1.183594-1.425781s.496094-1.296875 1.183594-1.421875l102.113281-17.027344c19.792969-3.519531 37.296875-14.960938 48.464843-31.679688 16.394532-23.71875 43.390626-37.875 72.222657-37.875s55.828125 14.15625 72.222656 37.875c11.167969 16.714844 28.667969 28.15625 48.457031 31.679688l102.121094 17.027344c.6875.125 1.183594.722656 1.183594 1.421875s-.496094 1.296875-1.183594 1.425781zm0 0"/><path d="m431.980469 360.480469c0-13.253907-10.746094-24-24-24-13.253907 0-24 10.746093-24 24 0 13.253906 10.746093 24 24 24 13.253906 0 24-10.746094 24-24zm-32 0c0-4.417969 3.582031-8 8-8s8 3.582031 8 8-3.582031 8-8 8-8-3.582031-8-8zm0 0"/><path d="m63.980469 32.480469c0 17.671875 14.328125 32 32 32s32-14.328125 32-32-14.328125-32-32-32-32 14.328125-32 32zm48 0c0 8.835937-7.164063 16-16 16-8.835938 0-16-7.164063-16-16 0-8.835938 7.164062-16 16-16 8.835937 0 16 7.164062 16 16zm0 0"/><path d="m111.980469 304.480469c0 8.835937-7.164063 16-16 16-8.835938 0-16-7.164063-16-16 0-8.835938 7.164062-16 16-16 8.835937 0 16 7.164062 16 16zm0 0"/><path d="m127.980469 320.480469h16v16h-16zm0 0"/><path d="m271.980469 16.480469h16v16h-16zm0 0"/><path d="m303.980469 32.480469h16v16h-16zm0 0"/><path d="m319.980469.480469h16v16h-16zm0 0"/></svg>