<?xml version="1.0" encoding="UTF-8"?>
<svg width="64" height="31" version="1.1" viewBox="0 0 16.933 8.2021" xmlns="http://www.w3.org/2000/svg" xmlns:cc="http://creativecommons.org/ns#" xmlns:dc="http://purl.org/dc/elements/1.1/" xmlns:rdf="http://www.w3.org/1999/02/22-rdf-syntax-ns#">
 <metadata>
  <rdf:RDF>
   <cc:Work rdf:about="">
    <dc:format>image/svg+xml</dc:format>
    <dc:type rdf:resource="http://purl.org/dc/dcmitype/StillImage"/>
    <dc:title/>
   </cc:Work>
  </rdf:RDF>
 </metadata>
 <g transform="matrix(.54982 -.0083236 .0083236 .54982 -255.4 -95.307)" fill="none" stroke="currentColor">
  <g fill="none" stroke="currentColor">
   <g fill="none" stroke="currentColor">
    <g transform="translate(0,15.875)">
     <path d="m472.81 170.19c0.77194-1.6554 2.4331-2.7137 4.2596-2.7137 1.8266 0 3.4877 1.0583 4.2596 2.7137 0 0-1.1836 0.29914-4.2596 0.29914-3.0761 0-4.2596-0.29914-4.2596-0.29914z" style="paint-order:markers fill stroke"/>
     <path d="m481.73 172.77a4.7 4.7 0 0 1-4.7328 4.1062 4.7 4.7 0 0 1-4.6077-4.246" style="paint-order:markers fill stroke"/>
    </g>
    <path d="m483.74 188.65a6.7 6.7 0 0 1-6.698 6.1002 6.7 6.7 0 0 1-6.6525-6.1498" style="paint-order:markers fill stroke"/>
    <path d="m477.07 188.55c11.598 5e-3 14.441-0.52918 14.441-0.52918-3.1756 3e-3 -6.1424-0.80812-7.745-2.66-2.413-2.7884-3.9914-4.0708-6.6918-4.0708s-4.2789 1.2824-6.6918 4.0708c-1.6026 1.8519-4.5694 2.663-7.7444 2.66 0 0 2.8342 0.52433 14.432 0.52918z"/>
   </g>
  </g>
 </g>
</svg>
