<svg id="Capa_1" enable-background="new 0 0 512.001 512.001" height="512" viewBox="0 0 512.001 512.001" width="512" xmlns="http://www.w3.org/2000/svg"><g><path d="m511.809 265.512c5.566-147.414-113.579-265.882-255.809-265.511-68.061-.036-132.904 26.772-181.02 74.98-48.351 48.352-74.98 112.64-74.98 181.02 0 34.835 7.019 68.544 20.038 99.473l.03.072c22.535 53.489 63.036 98.646 116.335 126.858 3.661 1.938 8.2.54 10.137-3.12 1.938-3.661.541-8.2-3.12-10.138-24.327-12.876-45.817-29.506-63.928-48.956 44.749 3.418 89.909 5.574 134.502 6.411 15.895.295 31.354 5.813 43.53 15.537 14.345 11.456 32.991 17.765 52.504 17.765 1.035 0 2.083-.023 3.149-.059 19.24-.664 37.518-7.398 51.431-18.936 10.876-10.166 27.77-17.9 44.363-18.75 7.606-.491 15.268-1.027 22.922-1.595-44.006 47.008-106.573 76.438-175.893 76.438-27.989 0-55.409-4.753-81.499-14.126-3.899-1.401-8.194.625-9.594 4.522-1.401 3.898.624 8.194 4.522 9.594 27.722 9.96 56.848 15.01 86.571 15.01 68.38 0 132.668-26.629 181.02-74.98 45.884-45.884 72.188-106.122 74.755-170.586.031-.304.041-.612.034-.923zm-32.441 80.942c-22.101 2.091-44.558 3.898-66.852 5.353-17.956 1.172-35.287-4.066-48.801-14.763-14.306-11.308-32.853-17.536-52.225-17.536-1.285 0-2.281.019-3.146.059-19.229.652-37.508 7.386-51.465 18.96-13.107 11.162-31.7 18.203-48.935 17.663-58.442-1.311-117.542-4.893-175.752-10.616-9.385-23.489-15.119-48.608-16.722-74.559 13.719.528 28.579 1.195 43.079 2.432 4.798.408 9.824.9 15.218 1.488 2.376 12.08 14.695 21.793 30.038 22.702 11.034.591 24.69-3.787 30.767-14.963 17.72 2.207 36.587 4.197 55.966 4.745 25.001.754 54.076-1.289 79.544-3.286 17.409-1.329 35.412-2.703 53.021-3.201 17.612-.499 35.669-.144 53.132.2 26.073.513 53.037 1.042 79.598-1.21 12.156-1.039 25.194-2.734 40.448-5.264-1.937 25.21-7.785 49.338-16.913 71.796zm-361.687-67.005c-3.426 2.329-8.158 3.5-12.986 3.215-9.218-.546-16.697-6.218-16.333-12.387.366-6.168 8.463-10.924 17.681-10.373 9.218.546 16.697 6.219 16.332 12.388-.212 3.594-3.032 6.027-4.694 7.157zm289.061-211.336c-53.547 3.475-107.843 5.129-161.677 4.887-.058 0-.115 0-.173 0-10.951 0-21.649 4.887-29.381 13.431-3.118 3.45-8.28 5.51-13.809 5.51-5.893 0-11.41-2.374-14.399-6.198-6.669-8.521-17.018-13.858-28.389-14.642-12.729-.883-31.161-2.201-52.588-3.847 41.141-32.693 93.164-52.253 149.674-52.253 57.002 0 109.434 19.905 150.742 53.112zm-316.327 12.946c27.733 2.192 51.864 3.924 67.464 5.006 7.14.492 13.559 3.744 17.609 8.919 5.852 7.486 15.652 11.956 26.214 11.956 9.845 0 18.934-3.81 24.935-10.449 4.985-5.508 11.472-8.518 18.36-8.491 59.186.265 118.937-1.74 177.647-5.935 17.946 17.201 33.25 37.139 45.22 59.143-20.895 2.189-42.194 4.222-63.473 6.055-17.162 1.481-34.961 1.568-52.447.269 1.97-18.213-17.071-32.953-35.862-33.129-15.698-.837-33.955 8.353-37.507 24.728-33.485-.907-70.189 1.59-104.628 1.437-4.142.038-7.469 3.426-7.431 7.568.038 4.119 3.388 7.432 7.498 7.432 34.98.206 70.502-2.475 106.104-1.329 5.013 12.165 19.429 20.119 33.912 20.612 11.367.156 23.547-3.334 31.612-12.801 18.876 1.726 39.849 1.916 60.037.156 23.279-2.005 46.577-4.249 69.355-6.674 7.214 15.665 12.79 32.23 16.52 49.476-13.91 2.257-25.822 3.781-36.991 4.738-11.273.957-23.603 1.475-37.69 1.584-4.142.033-7.474 3.417-7.441 7.559.032 4.122 3.384 7.441 7.499 7.441h.06c14.476-.113 27.181-.649 38.847-1.639 11.643-.997 24.013-2.582 38.44-4.929 1.791 11.823 2.724 23.923 2.724 36.237 0 1.115-.027 2.224-.042 3.336-16.223 2.758-29.826 4.567-42.395 5.641-25.776 2.187-52.341 1.664-78.03 1.159-17.641-.347-35.879-.706-53.851-.197-17.968.508-36.152 1.896-53.738 3.239-25.626 1.956-52.126 3.977-77.978 3.248-18.554-.525-36.778-2.432-53.949-4.562-2.262-12.189-14.645-22.02-30.087-22.935-13.614-.812-25.671 5.546-30.866 15.167-5.769-.634-11.124-1.16-16.24-1.595-15.193-1.297-30.651-1.975-44.824-2.516.001-13.658 1.161-27.048 3.356-40.091 13.064.521 26.705 1.175 40.195 2.324 17.561 1.494 35.459 3.884 52.769 6.195 25.855 3.453 52.591 7.023 79.222 7.777 25.001.754 54.076-1.29 79.544-3.286 17.409-1.329 35.412-2.703 53.021-3.201 17.615-.499 35.67-.144 53.134.2l5.539.108c4.1.104 7.563-3.213 7.643-7.355.079-4.141-3.214-7.563-7.355-7.642l-5.531-.108c-17.64-.347-35.881-.706-53.853-.197-17.968.508-36.152 1.896-53.739 3.239-25.625 1.957-52.122 3.982-77.978 3.248-25.846-.731-52.187-4.249-77.66-7.65-17.484-2.335-35.564-4.75-53.482-6.274-12.961-1.104-25.971-1.755-38.485-2.268 3.822-16.313 9.315-31.987 16.272-46.845 33.594.992 67.574 1.524 101.103 1.555h.007c4.139 0 7.496-3.354 7.5-7.493.004-4.142-3.351-7.503-7.493-7.507-31.022-.028-62.424-.499-93.554-1.355 12.048-21.697 27.345-41.353 45.238-58.299zm202.63 62.821c1.703-10.538 10.969-13.746 21.49-14.503 9.566.542 21.087 3.801 22.529 15.998-.169 4.983-3.871 8.366-6.063 9.939-4.317 3.098-10.322 4.758-16.463 4.546-9.362-.885-20.033-4.111-21.493-15.98zm114.962 263.309c-19.118 1.173-38.893 9.21-52.94 22.146-11.404 9.457-26.465 14.968-42.399 15.518-.89.03-1.77.05-2.639.05-16.125 0-31.446-5.145-43.144-14.485-14.745-11.776-33.43-18.457-52.61-18.813-49.266-.925-99.223-3.477-148.548-7.565-10.339-13.281-19.245-27.606-26.585-42.735 55.861 5.287 112.462 8.626 168.466 9.882 20.103.568 42.401-7.103 58.844-21.109 11.417-9.467 26.476-14.978 42.485-15.521.852-.038 1.712-.046 2.554-.046 16.011 0 31.254 5.08 42.919 14.3 16.43 13.003 37.409 19.383 59.084 17.966 19.596-1.278 39.316-2.831 58.819-4.603-7.41 15.036-16.332 29.199-26.585 42.274-12.533 1.008-25.202 1.932-37.721 2.741z"/><path d="m329.019 354.233c-3.993-1.086-8.118 1.273-9.204 5.271-1.087 3.997 1.273 8.118 5.271 9.204 12.512 3.4 20.788 11.163 21.085 19.777.19 5.55-2.956 11.065-8.86 15.529-6.687 5.056-15.839 8.028-25.771 8.37-9.938.346-19.267-1.995-26.286-6.578-6.197-4.047-9.716-9.333-9.907-14.884-.295-8.573 7.241-16.82 19.199-21.011 3.909-1.37 5.968-5.65 4.598-9.559-1.371-3.909-5.649-5.968-9.559-4.598-18.282 6.408-29.755 20.414-29.229 35.684.363 10.57 6.293 20.133 16.696 26.927 8.991 5.872 20.492 9.051 32.609 9.051.796 0 1.594-.014 2.394-.041 12.991-.447 25.173-4.495 34.301-11.396 9.911-7.493 15.169-17.441 14.805-28.011-.527-15.33-13.144-28.573-32.142-33.735z"/><path d="m26.143 45.33h3.211v3.204c0 4.142 3.358 7.5 7.5 7.5s7.5-3.358 7.5-7.5v-3.204h3.212c4.142 0 7.5-3.358 7.5-7.5s-3.358-7.5-7.5-7.5h-3.212v-3.204c0-4.142-3.358-7.5-7.5-7.5s-7.5 3.358-7.5 7.5v3.204h-3.211c-4.142 0-7.5 3.358-7.5 7.5 0 4.143 3.357 7.5 7.5 7.5z"/><path d="m460.5 41.297h3.212v3.203c0 4.142 3.357 7.5 7.5 7.5s7.5-3.358 7.5-7.5v-3.204h3.211c4.143 0 7.5-3.358 7.5-7.5s-3.357-7.5-7.5-7.5h-3.211v-3.204c0-4.142-3.357-7.5-7.5-7.5s-7.5 3.358-7.5 7.5v3.204h-3.212c-4.143 0-7.5 3.358-7.5 7.5s3.358 7.501 7.5 7.501z"/><path d="m504.5 427.501h-3v-2.992c0-4.142-3.357-7.5-7.5-7.5s-7.5 3.358-7.5 7.5v2.992h-3c-4.143 0-7.5 3.358-7.5 7.5s3.357 7.5 7.5 7.5h3v2.992c0 4.142 3.357 7.5 7.5 7.5s7.5-3.358 7.5-7.5v-2.992h3c4.143 0 7.5-3.358 7.5-7.5s-3.357-7.5-7.5-7.5z"/><path d="m47.712 473.107h-3.212v-3.204c0-4.142-3.358-7.5-7.5-7.5s-7.5 3.358-7.5 7.5v3.204h-3.211c-4.142 0-7.5 3.358-7.5 7.5s3.358 7.5 7.5 7.5h3.211v3.204c0 4.142 3.358 7.5 7.5 7.5s7.5-3.358 7.5-7.5v-3.204h3.211c4.142 0 7.5-3.358 7.5-7.5s-3.357-7.5-7.499-7.5z"/></g></svg>