<?xml version="1.0" encoding="UTF-8"?>
<svg width="45" height="45" version="1.1" viewBox="0 0 11.906 11.906" xmlns="http://www.w3.org/2000/svg" xmlns:cc="http://creativecommons.org/ns#" xmlns:dc="http://purl.org/dc/elements/1.1/" xmlns:rdf="http://www.w3.org/1999/02/22-rdf-syntax-ns#">
 <metadata>
  <rdf:RDF>
   <cc:Work rdf:about="">
    <dc:format>image/svg+xml</dc:format>
    <dc:type rdf:resource="http://purl.org/dc/dcmitype/StillImage"/>
    <dc:title/>
   </cc:Work>
  </rdf:RDF>
 </metadata>
 <g transform="matrix(.67733 0 0 .67733 -35.073 -68.836)" stroke="currentColor" fill="currentColor">
  <circle cx="60.569" cy="110.42" r="8.2" stroke-width=".8" style="paint-order:markers fill stroke"/>
  <g stroke-linecap="round" stroke-width=".6">
   <path d="m57.724 109.54a12.37 5.2863 0 0 1-5.0875-1.0886" style="paint-order:markers fill stroke"/>
   <path d="m68.597 110a12.793 5.2863 0 0 1-16.184-0.04314" style="paint-order:markers fill stroke"/>
   <path d="m61.228 116.63a11.313 5.2863 0 0 1-4.622-0.32602" style="paint-order:markers fill stroke"/>
   <path d="m67.176 111.41a12.793 5.2863 0 0 1-8.3826 0.70822" style="paint-order:markers fill stroke"/>
   <path d="m64.015 114.92a11.937 5.2863 0 0 1-10.708-0.86617" style="paint-order:markers fill stroke"/>
   <path d="m67.825 114.06a11.937 5.2863 0 0 1-1.9945 0.54747" style="paint-order:markers fill stroke"/>
   <path d="m68.53 108.44a12.37 5.2863 0 0 1-6.3948 1.1977" style="paint-order:markers fill stroke"/>
   <path d="m66.399 104.82a12.793 6.8576 0 0 1-10.186 0.3437" style="paint-order:markers fill stroke"/>
   <path d="m55.753 111.78a12.793 5.2863 0 0 1-1.3557-0.267" style="paint-order:markers fill stroke"/>
  </g>
 </g>
</svg>
