<?xml version="1.0" encoding="UTF-8"?>
<svg width="64" height="36" version="1.1" viewBox="0 0 16.933 9.525" xmlns="http://www.w3.org/2000/svg" xmlns:cc="http://creativecommons.org/ns#" xmlns:dc="http://purl.org/dc/elements/1.1/" xmlns:rdf="http://www.w3.org/1999/02/22-rdf-syntax-ns#">
 <metadata>
  <rdf:RDF>
   <cc:Work rdf:about="">
    <dc:format>image/svg+xml</dc:format>
    <dc:type rdf:resource="http://purl.org/dc/dcmitype/StillImage"/>
    <dc:title/>
   </cc:Work>
  </rdf:RDF>
 </metadata>
 <path d="m6.4551 0.48156a1.9291 2.6245 74.993 0 0-2.1718 2.3194 2.01 2.0611 30.224 0 0-0.92516-7.8e-6 2.01 2.0611 30.224 0 0-1.5592 2.4625 2.01 2.0611 30.224 0 0 1.7442 1.5708 2.4371 2.5702 63.347 0 0 0.011785 0.05822 2.4371 2.5702 63.347 0 0 2.997 1.8024 2.4371 2.5702 63.347 0 0 1.1065-0.55321 1.9291 2.6245 74.993 0 0 2.8112 0.90362 1.9291 2.6245 74.993 0 0 2.1805-2.322 2.01 2.0611 30.224 0 0 0.92517 8e-6 2.01 2.0611 30.224 0 0 1.5592-2.4625 2.01 2.0611 30.224 0 0-1.7446-1.5703 2.4371 2.5702 63.347 0 0-0.01132-0.058146 2.4371 2.5702 63.347 0 0-2.997-1.8024 2.4371 2.5702 63.347 0 0-1.1066 0.55273 1.9291 2.6245 74.993 0 0-2.8111-0.90314 1.9291 2.6245 74.993 0 0-0.00874 0.00234z" fill="none" stroke="currentColor" stroke-width=".62439" style="paint-order:markers fill stroke"/>
</svg>
