<?xml version="1.0" encoding="UTF-8"?>
<svg width="47" height="31" version="1.1" viewBox="0 0 12.435 8.2021" xmlns="http://www.w3.org/2000/svg" xmlns:cc="http://creativecommons.org/ns#" xmlns:dc="http://purl.org/dc/elements/1.1/" xmlns:rdf="http://www.w3.org/1999/02/22-rdf-syntax-ns#">
 <metadata>
  <rdf:RDF>
   <cc:Work rdf:about="">
    <dc:format>image/svg+xml</dc:format>
    <dc:type rdf:resource="http://purl.org/dc/dcmitype/StillImage"/>
    <dc:title/>
   </cc:Work>
  </rdf:RDF>
 </metadata>
 <path d="m4.472 0.38589a1.6741 2.2776 74.993 0 0-1.8848 2.0129 1.7444 1.7887 30.224 0 0-0.80288-6.7e-6 1.7444 1.7887 30.224 0 0-1.3531 2.1371 1.7444 1.7887 30.224 0 0 1.5137 1.3632 2.115 2.2305 63.347 0 0 0.010228 0.05053 2.115 2.2305 63.347 0 0 2.6009 1.5642 2.115 2.2305 63.347 0 0 0.96024-0.48009 1.6741 2.2776 74.993 0 0 2.4397 0.7842 1.6741 2.2776 74.993 0 0 1.8923-2.0151 1.7444 1.7887 30.224 0 0 0.80289 6e-6 1.7444 1.7887 30.224 0 0 1.3531-2.137 1.7444 1.7887 30.224 0 0-1.514-1.3627 2.115 2.2305 63.347 0 0-0.009821-0.050461 2.115 2.2305 63.347 0 0-2.6009-1.5642 2.115 2.2305 63.347 0 0-0.96032 0.47967 1.6741 2.2776 74.993 0 0-2.4396-0.78378 1.6741 2.2776 74.993 0 0-0.00759 0.00203z" stroke="currentColor" fill="currentColor" stroke-width=".54187" style="paint-order:markers fill stroke"/>
</svg>
