<?xml version="1.0" encoding="UTF-8"?>
<svg width="43" height="60" version="1.1" viewBox="0 0 43 60" xml:space="preserve" xmlns="http://www.w3.org/2000/svg" xmlns:cc="http://creativecommons.org/ns#" xmlns:dc="http://purl.org/dc/elements/1.1/" xmlns:rdf="http://www.w3.org/1999/02/22-rdf-syntax-ns#"><metadata><rdf:RDF><cc:Work rdf:about=""><dc:format>image/svg+xml</dc:format><dc:type rdf:resource="http://purl.org/dc/dcmitype/StillImage"/><dc:title/></cc:Work></rdf:RDF></metadata>
<g transform="matrix(.11719 0 0 .11719 -8.4999 0)" stroke="currentColor" fill="currentColor">

		<path d="m410.15 142.03c-7.677-13.603-22.182-22.3-38.22-22.3-14.62 0-28.095 7.336-36.164 19.024h-35.87v-35.703c13.191-7.721 21.701-21.997 21.701-37.889 0-17.694-10.309-33.139-25.915-40.068-7.129-15.12-22.41-25.097-39.681-25.097-17.27 0-32.552 9.977-39.682 25.098-15.606 6.93-25.915 22.374-25.915 40.068 0 15.892 8.51 30.168 21.701 37.889v35.703h-35.87c-8.069-11.688-21.544-19.024-36.164-19.024-16.038 0-30.543 8.697-38.22 22.3-16.176 6.651-27.246 22.626-27.246 40.62 0 16.877 9.571 31.903 24.156 39.224 6.139 17.075 22.508 29.05 41.31 29.05 17.179 0 32.163-9.717 39.366-24.378h32.668v179.38c-13.191 7.721-21.701 21.996-21.701 37.889 0 16.984 9.654 32.053 24.362 39.327 6.202 16.96 22.538 28.85 41.235 28.85s35.033-11.89 41.234-28.852c14.708-7.274 24.362-22.343 24.362-39.327 0-15.893-8.51-30.168-21.701-37.889v-179.38h32.668c7.203 14.661 22.188 24.378 39.366 24.378 18.802 0 35.171-11.975 41.31-29.05 14.585-7.32 24.156-22.347 24.156-39.224 1e-3 -17.994-11.069-33.968-27.246-40.62z"/>

</g>















</svg>
