<?xml version="1.0" encoding="UTF-8"?>
<svg width="64" height="64" version="1.1" viewBox="0 0 64 64" xml:space="preserve" xmlns="http://www.w3.org/2000/svg" xmlns:cc="http://creativecommons.org/ns#" xmlns:dc="http://purl.org/dc/elements/1.1/" xmlns:rdf="http://www.w3.org/1999/02/22-rdf-syntax-ns#"><metadata><rdf:RDF><cc:Work rdf:about=""><dc:format>image/svg+xml</dc:format><dc:type rdf:resource="http://purl.org/dc/dcmitype/StillImage"/><dc:title/></cc:Work></rdf:RDF></metadata>
<g transform="matrix(.11719 0 0 .11719 2.0001 2)" stroke="currentColor" fill="currentColor">

		<path d="m410.15 142.03c-7.677-13.603-22.182-22.3-38.22-22.3-14.62 0-28.095 7.336-36.164 19.024h-35.87v-35.703c13.191-7.721 21.701-21.997 21.701-37.889 0-17.694-10.309-33.139-25.915-40.068-7.129-15.12-22.41-25.097-39.681-25.097-17.27 0-32.552 9.977-39.682 25.098-15.606 6.93-25.915 22.374-25.915 40.068 0 15.892 8.51 30.168 21.701 37.889v35.703h-35.87c-8.069-11.688-21.544-19.024-36.164-19.024-16.038 0-30.543 8.697-38.22 22.3-16.176 6.651-27.246 22.626-27.246 40.62 0 16.877 9.571 31.903 24.156 39.224 6.139 17.075 22.508 29.05 41.31 29.05 17.179 0 32.163-9.717 39.366-24.378h32.668v179.38c-13.191 7.721-21.701 21.996-21.701 37.889 0 16.984 9.654 32.053 24.362 39.327 6.202 16.96 22.538 28.85 41.235 28.85s35.033-11.89 41.234-28.852c14.708-7.274 24.362-22.343 24.362-39.327 0-15.893-8.51-30.168-21.701-37.889v-179.38h32.668c7.203 14.661 22.188 24.378 39.366 24.378 18.802 0 35.171-11.975 41.31-29.05 14.585-7.32 24.156-22.347 24.156-39.224 1e-3 -17.994-11.069-33.968-27.246-40.62zm-13.23 54.095c-5.989 1.509-10.44 6.54-11.212 12.67-0.87 6.915-6.793 12.129-13.777 12.129-6.775 0-12.675-5.032-13.723-11.705-1.146-7.296-7.433-12.673-14.818-12.673h-58.493c-8.284 0-15 6.716-15 15v204.28c0 6.85 4.641 12.829 11.275 14.53 6.139 1.573 10.426 7.109 10.426 13.462 0 6.409-4.337 11.956-10.546 13.487-6.003 1.481-10.482 6.494-11.281 12.625-0.897 6.88-6.817 12.067-13.77 12.067s-12.873-5.188-13.77-12.066c-0.799-6.131-5.278-11.144-11.281-12.625-6.209-1.531-10.546-7.078-10.546-13.487 0-6.353 4.287-11.889 10.426-13.462 6.635-1.701 11.275-7.681 11.275-14.53v-204.28c0-8.284-6.716-15-15-15h-58.493c-7.386 0-13.673 5.377-14.818 12.673-1.048 6.673-6.947 11.705-13.723 11.705-6.984 0-12.907-5.214-13.777-12.129-0.771-6.13-5.223-11.161-11.213-12.672-6.168-1.557-10.476-7.097-10.476-13.473 0-6.581 4.666-12.308 11.096-13.615 5.228-1.064 9.497-4.825 11.213-9.877 1.914-5.639 7.202-9.428 13.157-9.428 5.826 0 11.077 3.677 13.066 9.149 2.155 5.929 7.789 9.875 14.098 9.875h59.87c8.284 0 15-6.716 15-15v-60.6c0-6.85-4.641-12.829-11.275-14.53-6.139-1.573-10.426-7.109-10.426-13.462 0-6.442 4.553-12.142 10.826-13.55 5.554-1.247 9.923-5.529 11.28-11.057 1.53-6.216 7.077-10.559 13.491-10.559 6.415 0 11.962 4.343 13.49 10.56 1.357 5.527 5.727 9.81 11.28 11.057 6.273 1.408 10.826 7.107 10.826 13.55 0 6.353-4.287 11.889-10.426 13.462-6.635 1.701-11.275 7.681-11.275 14.53v60.6c0 8.284 6.716 15 15 15h59.87c6.309 0 11.942-3.946 14.098-9.875 1.989-5.473 7.24-9.149 13.066-9.149 5.955 0 11.243 3.789 13.157 9.428 1.716 5.052 5.985 8.813 11.213 9.877 6.43 1.308 11.096 7.034 11.096 13.615 1e-3 6.376-4.307 11.916-10.476 13.473z"/>

</g>















</svg>
