<?xml version="1.0" encoding="UTF-8"?>
<svg width="60" height="47" version="1.1" viewBox="0 0 7.5 5.875" xmlns="http://www.w3.org/2000/svg" xmlns:cc="http://creativecommons.org/ns#" xmlns:dc="http://purl.org/dc/elements/1.1/" xmlns:rdf="http://www.w3.org/1999/02/22-rdf-syntax-ns#">
 <metadata>
  <rdf:RDF>
   <cc:Work rdf:about="">
    <dc:format>image/svg+xml</dc:format>
    <dc:type rdf:resource="http://purl.org/dc/dcmitype/StillImage"/>
    <dc:title/>
   </cc:Work>
  </rdf:RDF>
 </metadata>
 <g id="Outline" transform="matrix(.125 0 0 .125 -.25 -1.3268)" stroke="currentColor" fill="currentColor">
  <path d="m61 16a1 1 0 0 0-1 1v36h-5.43a85.082 85.082 0 0 0-19.12 2.178 1.992 1.992 0 0 1-2.1-0.834 22.732 22.732 0 0 1 11.861-3.344h11.789a1 1 0 0 0 1-1v-7a1 1 0 0 0-2 0v6h-10.789a24.728 24.728 0 0 0-12.211 3.212v-27.212a1 1 0 0 0-2 0v27.211a24.724 24.724 0 0 0-12.211-3.211h-10.789v-36h15.4a7.605 7.605 0 0 1 7.6 7.605 1 1 0 1 0 2 0 7.605 7.605 0 0 1 7.6-7.605h15.4v26a1 1 0 0 0 2 0v-27a1 1 0 0 0-1-1h-16.4a9.613 9.613 0 0 0-8.6 5.332 9.613 9.613 0 0 0-8.6-5.332h-16.4a1 1 0 0 0-1 1v38a1 1 0 0 0 1 1h11.789a22.732 22.732 0 0 1 11.863 3.344 2 2 0 0 1-2.1 0.834 85.069 85.069 0 0 0-19.122-2.178h-5.43v-36a1 1 0 0 0-2 0v37a1 1 0 0 0 1 1h6.43a83.117 83.117 0 0 1 18.67 2.127 3.98 3.98 0 0 0 3.9-1.268 3.978 3.978 0 0 0 3.9 1.268 83.145 83.145 0 0 1 18.67-2.127h6.43a1 1 0 0 0 1-1v-37a1 1 0 0 0-1-1z"/>
  <path d="m28.723 19.613a9.579 9.579 0 0 0-5.323-1.613h-11.4a1 1 0 0 0 0 2h11.4a7.576 7.576 0 0 1 4.218 1.277 1.0001 1.0001 0 1 0 1.11-1.664z"/>
  <path d="m52 18h-11.4a9.581 9.581 0 0 0-5.328 1.613 1.0001 1.0001 0 0 0 1.11 1.664 7.581 7.581 0 0 1 4.218-1.277h11.4a1 1 0 0 0 0-2z"/>
  <path d="m28.723 24.613a9.579 9.579 0 0 0-5.323-1.613h-11.4a1 1 0 0 0 0 2h11.4a7.576 7.576 0 0 1 4.218 1.277 1.0001 1.0001 0 1 0 1.11-1.664z"/>
  <path d="m52 23h-11.4a9.581 9.581 0 0 0-5.328 1.613 1.0001 1.0001 0 0 0 1.11 1.664 7.581 7.581 0 0 1 4.218-1.277h11.4a1 1 0 0 0 0-2z"/>
  <path d="m28.723 29.613a9.579 9.579 0 0 0-5.323-1.613h-11.4a1 1 0 0 0 0 2h11.4a7.576 7.576 0 0 1 4.218 1.277 1.0001 1.0001 0 1 0 1.11-1.664z"/>
  <path d="m52 28h-11.4a9.581 9.581 0 0 0-5.328 1.613 1.0001 1.0001 0 0 0 1.11 1.664 7.581 7.581 0 0 1 4.218-1.277h11.4a1 1 0 0 0 0-2z"/>
  <path d="m28.723 34.613a9.579 9.579 0 0 0-5.323-1.613h-11.4a1 1 0 0 0 0 2h11.4a7.576 7.576 0 0 1 4.218 1.277 1.0001 1.0001 0 1 0 1.11-1.664z"/>
  <path d="m52 33h-11.4a9.581 9.581 0 0 0-5.328 1.613 1.0001 1.0001 0 0 0 1.11 1.664 7.581 7.581 0 0 1 4.218-1.277h11.4a1 1 0 0 0 0-2z"/>
  <path d="m28.723 39.613a9.579 9.579 0 0 0-5.323-1.613h-11.4a1 1 0 0 0 0 2h11.4a7.576 7.576 0 0 1 4.218 1.277 1.0001 1.0001 0 1 0 1.11-1.664z"/>
  <path d="m52 38h-11.4a9.581 9.581 0 0 0-5.328 1.613 1.0001 1.0001 0 0 0 1.11 1.664 7.581 7.581 0 0 1 4.218-1.277h11.4a1 1 0 0 0 0-2z"/>
  <path d="m23.4 43h-11.4a1 1 0 0 0 0 2h11.4a7.576 7.576 0 0 1 4.218 1.277 1.0001 1.0001 0 1 0 1.11-1.664 9.579 9.579 0 0 0-5.328-1.613z"/>
  <path d="m52 43h-11.4a9.581 9.581 0 0 0-5.328 1.613 1.0001 1.0001 0 0 0 1.11 1.664 7.581 7.581 0 0 1 4.218-1.277h11.4a1 1 0 0 0 0-2z"/>
 </g>
</svg>
