<?xml version="1.0" encoding="UTF-8"?>
<svg width="60" height="56" enable-background="new 0 0 512 512" version="1.1" viewBox="0 0 60 56" xmlns="http://www.w3.org/2000/svg" xmlns:cc="http://creativecommons.org/ns#" xmlns:dc="http://purl.org/dc/elements/1.1/" xmlns:rdf="http://www.w3.org/1999/02/22-rdf-syntax-ns#">
 <metadata>
  <rdf:RDF>
   <cc:Work rdf:about="">
    <dc:format>image/svg+xml</dc:format>
    <dc:type rdf:resource="http://purl.org/dc/dcmitype/StillImage"/>
    <dc:title/>
   </cc:Work>
  </rdf:RDF>
 </metadata>
 <g transform="matrix(.11719 0 0 .11719 -2.8686e-7 -2.0001)" stroke="currentColor" fill="currentColor">
  <path d="m376.7 193.08c-14.618 0-28.697 2.34-41.895 6.648v-41.765c0-77.344-62.924-140.27-140.27-140.27-62.025 0-114.77 40.47-133.23 96.388-5.754-2.952-12.266-4.629-19.165-4.629-23.238 0-42.143 18.906-42.143 42.143s18.905 42.143 42.143 42.143c22.435 0 40.826-17.622 42.071-39.751 1e-3 -0.01 6e-3 -0.019 7e-3 -0.029 1.833-23.628 21.849-42.292 45.939-42.292 25.294 0 45.872 20.579 45.872 45.873v41.557c-12.629-3.91-26.042-6.018-39.939-6.018h-0.541c-74.603 0-135.3 60.694-135.3 135.3v71.044h0.037c0.778 22.559 19.36 40.674 42.106 40.674 23.238 0 42.143-18.905 42.143-42.143s-18.905-42.143-42.143-42.143c-4.092 0-8.045 0.597-11.788 1.69 2.784-23.671 22.956-42.1 47.362-42.1 26.303 0 47.575 21.399 47.575 47.703v131.19h260.9v-131.19c0-26.303 21.527-47.703 47.831-47.703 24.407 0 44.579 18.429 47.362 42.1-3.743-1.093-7.696-1.69-11.788-1.69-23.238 0-42.143 18.905-42.143 42.143s18.905 42.143 42.143 42.143 42.143-18.905 42.143-42.143v-69.575c1e-3 -74.602-60.693-135.3-135.3-135.3z"/>
 </g>
</svg>
