<?xml version="1.0" encoding="UTF-8"?>
<svg width="64" height="64" enable-background="new 0 0 512 512" version="1.1" viewBox="0 0 64 64" xmlns="http://www.w3.org/2000/svg" xmlns:cc="http://creativecommons.org/ns#" xmlns:dc="http://purl.org/dc/elements/1.1/" xmlns:rdf="http://www.w3.org/1999/02/22-rdf-syntax-ns#">
 <metadata>
  <rdf:RDF>
   <cc:Work rdf:about="">
    <dc:format>image/svg+xml</dc:format>
    <dc:type rdf:resource="http://purl.org/dc/dcmitype/StillImage"/>
    <dc:title/>
   </cc:Work>
  </rdf:RDF>
 </metadata>
 <g transform="matrix(.11719 0 0 .11719 2 1.9999)" stroke="currentColor" fill="currentColor">
  <path d="m376.7 193.08c-14.618 0-28.697 2.34-41.895 6.648v-41.765c0-77.344-62.924-140.27-140.27-140.27-62.025 0-114.77 40.47-133.23 96.388-5.754-2.952-12.266-4.629-19.165-4.629-23.238 0-42.143 18.906-42.143 42.143s18.905 42.143 42.143 42.143c22.435 0 40.826-17.622 42.071-39.751 1e-3 -0.01 6e-3 -0.019 7e-3 -0.029 1.833-23.628 21.849-42.292 45.939-42.292 25.294 0 45.872 20.579 45.872 45.873v41.557c-12.629-3.91-26.042-6.018-39.939-6.018h-0.541c-74.603 0-135.3 60.694-135.3 135.3v71.044h0.037c0.778 22.559 19.36 40.674 42.106 40.674 23.238 0 42.143-18.905 42.143-42.143s-18.905-42.143-42.143-42.143c-4.092 0-8.045 0.597-11.788 1.69 2.784-23.671 22.956-42.1 47.362-42.1 26.303 0 47.575 21.399 47.575 47.703v131.19h260.9v-131.19c0-26.303 21.527-47.703 47.831-47.703 24.407 0 44.579 18.429 47.362 42.1-3.743-1.093-7.696-1.69-11.788-1.69-23.238 0-42.143 18.905-42.143 42.143s18.905 42.143 42.143 42.143 42.143-18.905 42.143-42.143v-69.575c1e-3 -74.602-60.693-135.3-135.3-135.3zm-334.56-29.355c-6.688 0-12.128-5.44-12.128-12.128s5.44-12.128 12.128-12.128 12.128 5.441 12.128 12.128-5.44 12.128-12.128 12.128zm88.017-82.071c-5.82 0-11.481 0.681-16.929 1.927 20.171-22.033 49.153-35.871 81.309-35.871 60.794 0 110.25 49.459 110.25 110.25v55.861c-20.463 12.892-37.25 31.107-48.395 52.692-11.498-22.271-28.999-40.959-50.351-53.909v-55.065c0-41.845-34.043-75.888-75.887-75.888zm-87.762 304.17c6.688 0 12.128 5.441 12.128 12.128s-5.44 12.128-12.128 12.128-12.128-5.441-12.128-12.128 5.44-12.128 12.128-12.128zm35.574-100.44c-16.074 0-31.024 4.906-43.432 13.298 12.851-43.639 53.268-75.588 101.01-75.588h0.541c58.052 0 105.28 47.229 105.28 105.28v76.386h-85.685v-41.661c0-42.853-34.864-77.717-77.718-77.717zm278.34 178.9h-200.62v-29.501h200.62v29.501zm77.973-178.9c-42.853 0-77.717 34.864-77.717 77.717v41.661h-85.145v-76.386c0-58.053 47.23-105.28 105.28-105.28 47.744 0 88.16 31.948 101.01 75.587-12.408-8.392-27.358-13.297-43.432-13.297zm35.575 124.7c-6.688 0-12.128-5.441-12.128-12.128s5.44-12.128 12.128-12.128 12.128 5.441 12.128 12.128-5.44 12.128-12.128 12.128z"/>
 </g>
</svg>
