<?xml version="1.0" encoding="UTF-8"?>
<svg width="64" height="64" enable-background="new 0 0 512 512" version="1.1" viewBox="0 0 64 64" xmlns="http://www.w3.org/2000/svg" xmlns:cc="http://creativecommons.org/ns#" xmlns:dc="http://purl.org/dc/elements/1.1/" xmlns:rdf="http://www.w3.org/1999/02/22-rdf-syntax-ns#">
 <metadata>
  <rdf:RDF>
   <cc:Work rdf:about="">
    <dc:format>image/svg+xml</dc:format>
    <dc:type rdf:resource="http://purl.org/dc/dcmitype/StillImage"/>
    <dc:title/>
   </cc:Work>
  </rdf:RDF>
 </metadata>
 <g transform="matrix(.11719 0 0 .11719 1.9998 2)" stroke="currentColor" fill="currentColor">
  <path d="m352.4 213.68c-8.284 0-15 6.716-15 15v59.451c0 8.284 6.716 15 15 15s15-6.716 15-15v-59.451c0-8.285-6.716-15-15-15z"/>
  <path d="m159.6 213.68c-8.284 0-15 6.716-15 15v59.451c0 8.284 6.716 15 15 15s15-6.716 15-15v-59.451c0-8.285-6.716-15-15-15z"/>
  <path d="m223.87 194.4c-8.284 0-15 6.716-15 15v102.83c0 8.284 6.716 15 15 15s15-6.716 15-15v-102.83c0-8.284-6.715-15-15-15z"/>
  <path d="m420.98 177.36-5.819-1.746c-5.75-75.003-62.062-122.27-116.38-134.34-3.102-0.692-27.781-2.938-27.781-26.281 0-8.284-6.716-14.996-15-14.996s-15 6.72-15 15.004c0 23.677-25.54 25.772-27.777 26.271-54.177 12.035-110.63 59.28-116.38 134.34l-5.819 1.746c-6.345 1.903-10.689 7.743-10.689 14.367v128.54c0 5.682 3.21 10.876 8.292 13.416l55.461 27.73c-2.498 22.122-14.079 42.63-32.047 56.108l-25.705 19.277c-4.529 3.396-6.761 9.053-5.77 14.627 0.991 5.573 5.036 10.114 10.458 11.741l160.67 48.2c1.406 0.422 2.858 0.633 4.311 0.633 1.452 0 2.904-0.211 4.311-0.633l160.67-48.2c5.423-1.627 9.468-6.169 10.458-11.744 0.99-5.574-1.243-11.232-5.774-14.627 0 0-12.046-9.026-25.702-19.276-17.968-13.473-29.548-33.981-32.045-56.106l55.461-27.73c5.082-2.54 8.292-7.734 8.292-13.416v-128.54c-2e-3 -6.624-4.346-12.463-10.691-14.367zm-201.24-106.8c9.615-2.144 23.449-4.145 36.26-17.656 12.849 13.549 26.819 15.551 36.264 17.658 45.637 10.14 82.841 46.778 91.51 95.64l-123.46-37.038c-2.813-0.844-5.809-0.844-8.621 0l-123.46 37.037c8.67-48.872 45.87-85.501 91.512-95.641zm164.15 372.41-127.89 38.368-127.9-38.368c4.409-3.308 34.818-24.264 44.054-67.521l77.133 38.565c4.223 2.111 9.193 2.111 13.416 0l77.132-38.564c9.236 43.26 39.638 64.206 44.054 67.52zm17.773-131.98-145.67 72.833-145.67-72.833v-108.11l145.67-43.701 145.67 43.7z"/>
  <path d="m288.13 194.4c-8.284 0-15 6.716-15 15v102.83c0 8.284 6.716 15 15 15s15-6.716 15-15v-102.83c0-8.284-6.716-15-15-15z"/>
 </g>
</svg>
