<?xml version="1.0" encoding="UTF-8"?>
<svg width="42" height="60" enable-background="new 0 0 512 512" version="1.1" viewBox="0 0 42 60" xmlns="http://www.w3.org/2000/svg" xmlns:cc="http://creativecommons.org/ns#" xmlns:dc="http://purl.org/dc/elements/1.1/" xmlns:rdf="http://www.w3.org/1999/02/22-rdf-syntax-ns#">
 <metadata>
  <rdf:RDF>
   <cc:Work rdf:about="">
    <dc:format>image/svg+xml</dc:format>
    <dc:type rdf:resource="http://purl.org/dc/dcmitype/StillImage"/>
    <dc:title/>
   </cc:Work>
  </rdf:RDF>
 </metadata>
 <g transform="matrix(.11719 0 0 .11719 -9.0002 -5.7204e-7)" stroke="currentColor" fill="currentColor">
  <path d="m420.98 177.36-5.819-1.746c-5.75-75.003-62.062-122.27-116.38-134.34-3.102-0.692-27.781-2.938-27.781-26.281 0-8.284-6.716-14.996-15-14.996s-15 6.72-15 15.004c0 23.677-25.54 25.772-27.777 26.271-54.177 12.035-110.63 59.28-116.38 134.34l-5.819 1.746c-6.345 1.903-10.689 7.743-10.689 14.367v128.54c0 5.682 3.21 10.876 8.292 13.416l55.461 27.73c-2.498 22.122-14.079 42.63-32.047 56.108l-25.705 19.277c-4.529 3.396-6.761 9.053-5.77 14.627 0.991 5.573 5.036 10.114 10.458 11.741l160.67 48.2c1.406 0.422 2.858 0.633 4.311 0.633 1.452 0 2.904-0.211 4.311-0.633l160.67-48.2c5.423-1.627 9.468-6.169 10.458-11.744 0.99-5.574-1.243-11.232-5.774-14.627 0 0-12.046-9.026-25.702-19.276-17.968-13.473-29.548-33.981-32.045-56.106l55.461-27.73c5.082-2.54 8.292-7.734 8.292-13.416v-128.54c-2e-3 -6.624-4.346-12.463-10.691-14.367z"/>
 </g>
</svg>
