<?xml version="1.0" encoding="UTF-8"?>
<svg width="51" height="58" version="1.1" viewBox="0 0 51 58" xmlns="http://www.w3.org/2000/svg" xmlns:cc="http://creativecommons.org/ns#" xmlns:dc="http://purl.org/dc/elements/1.1/" xmlns:rdf="http://www.w3.org/1999/02/22-rdf-syntax-ns#">
 <metadata>
  <rdf:RDF>
   <cc:Work rdf:about="">
    <dc:format>image/svg+xml</dc:format>
    <dc:type rdf:resource="http://purl.org/dc/dcmitype/StillImage"/>
    <dc:title/>
   </cc:Work>
  </rdf:RDF>
 </metadata>
 <g transform="translate(-7.0283 -3.0917)" data-name="Layer 10" stroke="currentColor" fill="currentColor">
  <path d="m38.29 14.41 4-5.49c0.40577-0.10339 0.65454-0.51208 0.56-0.92 0.089064-0.46185-0.26972-0.88851-0.74-0.88-0.14-0.1-3.87-4-3.94-3.83-0.31-0.13-11.42 0-11.72 0-0.07537-0.019923-0.15463-0.019923-0.23 0l-0.22 0.08v0.06c-0.05562 0.032557-0.10342 0.076936-0.14 0.13l-3.62 3.56c-0.95 0-1 1.6-0.18 1.8l4.08 5.6c-28.81 6.42-23.3 47.92 6.38 46.39 30.1 1.47 35.13-40.7 5.77-46.5z"/>
 </g>
</svg>
