<?xml version="1.0" encoding="UTF-8"?>
<svg width="51" height="58" version="1.1" viewBox="0 0 51 58" xmlns="http://www.w3.org/2000/svg" xmlns:cc="http://creativecommons.org/ns#" xmlns:dc="http://purl.org/dc/elements/1.1/" xmlns:rdf="http://www.w3.org/1999/02/22-rdf-syntax-ns#">
 <metadata>
  <rdf:RDF>
   <cc:Work rdf:about="">
    <dc:format>image/svg+xml</dc:format>
    <dc:type rdf:resource="http://purl.org/dc/dcmitype/StillImage"/>
    <dc:title/>
   </cc:Work>
  </rdf:RDF>
 </metadata>
 <g transform="translate(-7.0283 -3.0917)" data-name="Layer 10" stroke="currentColor" fill="currentColor">
  <path d="m38.29 14.41 4-5.49a0.77 0.77 0 0 0 0.56-0.92 0.74 0.74 0 0 0-0.74-0.88c-0.14-0.1-3.87-4-3.94-3.83-0.31-0.13-11.42 0-11.72 0a0.45 0.45 0 0 0-0.23 0l-0.22 0.08v0.06a0.44 0.44 0 0 0-0.14 0.13l-3.62 3.56c-0.95 0-1 1.6-0.18 1.8l4.08 5.6c-28.81 6.42-23.3 47.92 6.38 46.39 30.1 1.47 35.13-40.7 5.77-46.5zm-5.77 44.49c-25.84-2.9-25.52-39.9 0-42.69 25.56 2.89 25.82 39.72 0 42.69zm3-50-1.72 5.19c-1.08 0.09-2.1 0-3.19 0l-1.75-5.15zm1.1 5.26c-0.41 0-0.82-0.06-1.24-0.07l1.72-5.19h3.35zm3.38-7.04h-2.32l0.58-1.73zm-3.1-2.37-0.8 2.37h-7.85l-0.79-2.37zm-10.8 0.64 0.58 1.73h-2.32zm-2.17 3.55h3.35l1.72 5.22c-0.41 0-0.81 0.06-1.21 0.11zm-14.87 28.61a21.44 21.44 0 0 1 12.36-19.41c-13.7 9.05-13.69 29.79 0 38.86a21.46 21.46 0 0 1-12.36-19.45zm34.56 19.45c13.7-9 13.7-29.79 0-38.83 16.38 7.6 16.38 31.18 0 38.83z"/>
 </g>
</svg>
