<?xml version="1.0" encoding="UTF-8"?>
<svg width="60" height="56" version="1.1" viewBox="0 0 60 56" xml:space="preserve" xmlns="http://www.w3.org/2000/svg" xmlns:cc="http://creativecommons.org/ns#" xmlns:dc="http://purl.org/dc/elements/1.1/" xmlns:rdf="http://www.w3.org/1999/02/22-rdf-syntax-ns#"><metadata><rdf:RDF><cc:Work rdf:about=""><dc:format>image/svg+xml</dc:format><dc:type rdf:resource="http://purl.org/dc/dcmitype/StillImage"/><dc:title/></cc:Work></rdf:RDF></metadata>
<path stroke="currentColor" fill="currentColor" d="m55.532 16.191c-2.4894 0-4.4681 1.9787-4.4681 4.4681 0 0.89362 0.25532 1.7872 0.76596 2.4894l-12.191 4.2128-7.8511-18.574c1.5957-0.70213 2.6809-2.234 2.6809-4.0851 0-2.4894-1.9787-4.4681-4.4681-4.4681s-4.4681 1.9787-4.4681 4.4681c0 1.8511 1.0851 3.383 2.6809 4.0851l-7.8511 18.574-12.191-4.2128c0.44681-0.70213 0.76596-1.5319 0.76596-2.4894 0-2.4894-1.9787-4.4681-4.4681-4.4681-2.4894 0-4.4681 1.9787-4.4681 4.4681 0 2.4894 1.9787 4.4681 4.4681 4.4681 0.25532 0 0.57447 0 0.82979-0.06383l3.6383 24.447v4.9787c0 0.70213 0.57447 1.2766 1.2766 1.2766h39.574c0.70213 0 1.2766-0.57447 1.2766-1.2766v-5.0426l3.6383-24.447c0.25532 0.06383 0.51064 0.06383 0.82979 0.06383 2.4894 0 4.4681-1.9787 4.4681-4.4681 0-2.4894-1.9787-4.4043-4.4681-4.4043zm-6.8298 31.915h-37.404l-3.383-22.34 12.702 4.4043h0.12766 0.06383 0.25532c0.12766 0 0.25532 0 0.38298-0.06383 0.06383 0 0.06383-0.06383 0.12766-0.06383 0.06383-0.06383 0.12766-0.06383 0.25532-0.12766 0.06383 0 0.06383-0.06383 0.12766-0.12766s0.12766-0.12766 0.19149-0.19149c0.06383-0.06383 0.06383-0.06383 0.06383-0.12766s0.06383-0.12766 0.12766-0.12766l7.6596-18.191 7.7872 18.319c0 0.06383 0.06383 0.12766 0.06383 0.12766 0 0.06383 0.06383 0.12766 0.06383 0.12766 0.06383 0.06383 0.12766 0.12766 0.19149 0.12766 0.06383 0.06383 0.06383 0.06383 0.12766 0.12766 0.06383 0.06383 0.12766 0.06383 0.19149 0.12766 0.06383 0 0.06383 0.06383 0.12766 0.06383 0.12766 0.06383 0.25532 0.06383 0.38298 0.06383h0.25532 0.06383 0.12766l12.702-4.4043zm-18.702-45.319c1.0851 0 1.9149 0.82979 1.9149 1.9149 0 1.0851-0.82979 1.9149-1.9149 1.9149s-1.9149-0.82979-1.9149-1.9149c0-1.0851 0.82979-1.9149 1.9149-1.9149zm-27.447 17.872c0-1.0851 0.82979-1.9149 1.9149-1.9149s1.9149 0.82979 1.9149 1.9149c0 1.0851-0.82979 1.9149-1.9149 1.9149s-1.9149-0.82979-1.9149-1.9149zm45.957 32.553h-37.021v-2.5532h37.021zm7.0213-30.638c-1.0851 0-1.9149-0.82979-1.9149-1.9149 0-1.0851 0.82979-1.9149 1.9149-1.9149s1.9149 0.82979 1.9149 1.9149c0 1.0851-0.82979 1.9149-1.9149 1.9149zm-24.255 20.17v0.25532c0 0.31915-0.12766 0.6383-0.38298 0.89362-0.12766 0.12766-0.25532 0.19149-0.38298 0.25532-0.12766 0.06383-0.31915 0.12766-0.51064 0.12766s-0.31915 0-0.51064-0.12766c-0.12766-0.06383-0.31915-0.12766-0.44681-0.25532-0.06383-0.06383-0.12766-0.12766-0.12766-0.19149-0.06383-0.06383-0.06383-0.12766-0.12766-0.19149s-0.06383-0.12766-0.06383-0.25532v-0.25532-0.25532c0-0.06383 0.06383-0.19149 0.06383-0.25532 0-0.06383 0.06383-0.12766 0.12766-0.19149s0.06383-0.12766 0.12766-0.19149c0.31915-0.31915 0.76596-0.44681 1.1489-0.31915 0.06383 0 0.12766 0.06383 0.25532 0.06383 0.06383 0.06383 0.12766 0.06383 0.19149 0.12766 0.06383 0.06383 0.12766 0.12766 0.19149 0.12766 0.06383 0.06383 0.12766 0.12766 0.12766 0.19149 0.06383 0.06383 0.06383 0.12766 0.12766 0.19149 0.06383 0.06383 0.12766 0.19149 0.19149 0.25532z" stroke-width=".6383"/>
</svg>
