<?xml version="1.0" encoding="UTF-8"?>
<svg width="60" height="56" version="1.1" viewBox="0 0 60 56" xml:space="preserve" xmlns="http://www.w3.org/2000/svg" xmlns:cc="http://creativecommons.org/ns#" xmlns:dc="http://purl.org/dc/elements/1.1/" xmlns:rdf="http://www.w3.org/1999/02/22-rdf-syntax-ns#"><metadata><rdf:RDF><cc:Work rdf:about=""><dc:format>image/svg+xml</dc:format><dc:type rdf:resource="http://purl.org/dc/dcmitype/StillImage"/><dc:title/></cc:Work></rdf:RDF></metadata>
<path stroke="currentColor" fill="currentColor" d="m55.532 16.191c-2.4894 0-4.4681 1.9787-4.4681 4.4681 0 0.89362 0.25532 1.7872 0.76596 2.4894l-12.191 4.2128-7.8511-18.574c1.5957-0.70213 2.6809-2.234 2.6809-4.0851 0-2.4894-1.9787-4.4681-4.4681-4.4681s-4.4681 1.9787-4.4681 4.4681c0 1.8511 1.0851 3.383 2.6809 4.0851l-7.8511 18.574-12.191-4.2128c0.44681-0.70213 0.76596-1.5319 0.76596-2.4894 0-2.4894-1.9787-4.4681-4.4681-4.4681-2.4894 0-4.4681 1.9787-4.4681 4.4681 0 2.4894 1.9787 4.4681 4.4681 4.4681 0.25532 0 0.57447 0 0.82979-0.06383l3.6383 24.447v4.9787c0 0.70213 0.57447 1.2766 1.2766 1.2766h39.574c0.70213 0 1.2766-0.57447 1.2766-1.2766v-5.0426l3.6383-24.447c0.25532 0.06383 0.51064 0.06383 0.82979 0.06383 2.4894 0 4.4681-1.9787 4.4681-4.4681 0-2.4894-1.9787-4.4043-4.4681-4.4043z" stroke-width=".6383"/>
</svg>
